<?xml version="1.0" encoding="UTF-8" standalone="no"?>
<svg
   xmlns:dc="http://purl.org/dc/elements/1.1/"
   xmlns:cc="http://creativecommons.org/ns#"
   xmlns:rdf="http://www.w3.org/1999/02/22-rdf-syntax-ns#"
   xmlns:svg="http://www.w3.org/2000/svg"
   xmlns="http://www.w3.org/2000/svg"
   xmlns:sodipodi="http://sodipodi.sourceforge.net/DTD/sodipodi-0.dtd"
   xmlns:inkscape="http://www.inkscape.org/namespaces/inkscape"
   width="571.55261mm"
   height="507.96564mm"
   viewBox="0 0 571.5526 507.96564"
   version="1.1"
   id="svg8"
   inkscape:version="1.0.2 (e86c870879, 2021-01-15, custom)"
   sodipodi:docname="cerebro.svg"
   inkscape:export-filename="D:\Users\anxol\Documentos\TFG\presentación\media\6\cerebro.png"
   inkscape:export-xdpi="96"
   inkscape:export-ydpi="96">
  <defs
     id="defs2" />
  <sodipodi:namedview
     id="base"
     pagecolor="#ffffff"
     bordercolor="#666666"
     borderopacity="1.0"
     inkscape:pageopacity="0.0"
     inkscape:pageshadow="2"
     inkscape:zoom="0.23076579"
     inkscape:cx="1001.8437"
     inkscape:cy="954.03533"
     inkscape:document-units="mm"
     inkscape:current-layer="layer1"
     inkscape:document-rotation="0"
     showgrid="false"
     showguides="false"
     inkscape:window-width="2560"
     inkscape:window-height="1377"
     inkscape:window-x="2552"
     inkscape:window-y="-8"
     inkscape:window-maximized="1" />
  <metadata
     id="metadata5">
    <rdf:RDF>
      <cc:Work
         rdf:about="">
        <dc:format>image/svg+xml</dc:format>
        <dc:type
           rdf:resource="http://purl.org/dc/dcmitype/StillImage" />
        <dc:title></dc:title>
      </cc:Work>
    </rdf:RDF>
  </metadata>
  <g
     inkscape:label="Layer 1"
     inkscape:groupmode="layer"
     id="layer1"
     transform="translate(627.64633,404.85906)">
    <g
       id="g2503"
       transform="translate(-194.73333,-190.5)">
      <path
         style="color:#000000;font-style:normal;font-variant:normal;font-weight:normal;font-stretch:normal;font-size:medium;line-height:normal;font-family:sans-serif;font-variant-ligatures:normal;font-variant-position:normal;font-variant-caps:normal;font-variant-numeric:normal;font-variant-alternates:normal;font-variant-east-asian:normal;font-feature-settings:normal;font-variation-settings:normal;text-indent:0;text-align:start;text-decoration:none;text-decoration-line:none;text-decoration-style:solid;text-decoration-color:#000000;letter-spacing:normal;word-spacing:normal;text-transform:none;writing-mode:lr-tb;direction:ltr;text-orientation:mixed;dominant-baseline:auto;baseline-shift:baseline;text-anchor:start;white-space:normal;shape-padding:0;shape-margin:0;inline-size:0;clip-rule:nonzero;display:inline;overflow:visible;visibility:visible;isolation:auto;mix-blend-mode:normal;color-interpolation:sRGB;color-interpolation-filters:linearRGB;solid-color:#000000;solid-opacity:1;vector-effect:none;fill:#922e2e;fill-opacity:1;fill-rule:nonzero;stroke:none;stroke-width:40;stroke-linecap:butt;stroke-linejoin:miter;stroke-miterlimit:4;stroke-dasharray:none;stroke-dashoffset:0;stroke-opacity:1;color-rendering:auto;image-rendering:auto;shape-rendering:auto;text-rendering:auto;enable-background:accumulate;stop-color:#000000;stop-opacity:1"
         d="m 12.079817,86.914129 c 0,0 34.05926,65.041701 44.901273,99.905341 4.329805,13.92294 7.857728,43.03041 7.857728,43.03041 0,0 3.443015,20.24897 2.245069,30.30836 -0.433783,3.64256 -2.737719,8.45697 -5.799743,10.47697 -3.346195,2.20747 -10.040546,2.71394 -14.031667,2.33859 -6.610646,-0.6217 -9.882874,-1.55139 -15.341266,-5.33201 -4.448104,-3.08087 -6.344693,-9.23637 -7.109354,-14.59293 -1.851303,-12.96863 1.36422,-26.4786 -2.338623,-39.56923 -2.448041,-8.65454 -5.149901,-14.57765 -10.470306,-21.48393 -3.3769487,-4.38353 -8.3718902,-9.39376 -13.3834976,-12.84685 -7.2689733,-5.00846 -16.4372914,-8.93906 -24.3215314,-12.90912 -21.514283,-10.8334 -62.487598,-36.2952 -62.487598,-36.2952 z"
         id="path2499" />
      <path
         style="color:#000000;font-style:normal;font-variant:normal;font-weight:normal;font-stretch:normal;font-size:medium;line-height:normal;font-family:sans-serif;font-variant-ligatures:normal;font-variant-position:normal;font-variant-caps:normal;font-variant-numeric:normal;font-variant-alternates:normal;font-variant-east-asian:normal;font-feature-settings:normal;font-variation-settings:normal;text-indent:0;text-align:start;text-decoration:none;text-decoration-line:none;text-decoration-style:solid;text-decoration-color:#000000;letter-spacing:normal;word-spacing:normal;text-transform:none;writing-mode:lr-tb;direction:ltr;text-orientation:mixed;dominant-baseline:auto;baseline-shift:baseline;text-anchor:start;white-space:normal;shape-padding:0;shape-margin:0;inline-size:0;clip-rule:nonzero;display:inline;overflow:visible;visibility:visible;isolation:auto;mix-blend-mode:normal;color-interpolation:sRGB;color-interpolation-filters:linearRGB;solid-color:#000000;solid-opacity:1;vector-effect:none;fill:#922e2e;fill-opacity:1;fill-rule:nonzero;stroke:none;stroke-linecap:butt;stroke-linejoin:miter;stroke-miterlimit:4;stroke-dasharray:none;stroke-dashoffset:0;stroke-opacity:1;color-rendering:auto;image-rendering:auto;shape-rendering:auto;text-rendering:auto;enable-background:accumulate;stop-color:#000000;stop-opacity:1"
         d="M 21.208984,61.234375 4.1933594,68.535156 -131.33008,126.68945 l 32.574221,20.24219 c 0,0 40.40182,25.26455 64.048828,37.17188 8.710884,4.38631 17.144101,8.18939 21.96875,11.51367 2.681348,1.8475 6.8321941,5.91706 8.8867185,8.58398 3.944284,5.11997 5.0208001,7.47703 7.0703125,14.72266 1.896513,6.70472 -0.8005802,18.85142 1.7832031,36.95117 1.115566,7.8147 3.0102518,19.54339 15.5214849,28.20898 7.27243,5.03707 17.006836,8.06461 24.855468,8.80274 7.736574,0.72759 14.510899,2.62825 26.917969,-5.55664 11.405647,-7.52424 13.474082,-14.96175 14.646484,-24.80664 1.051363,-8.8285 0.120641,-16.60476 -0.658203,-23.52735 -0.778844,-6.92258 -1.728515,-12.49804 -1.728515,-12.49804 l 0.136718,0.94531 c 0,0 -2.853036,-28.03355 -8.615234,-46.5625 C 63.80372,141.41121 29.796875,77.636719 29.796875,77.636719 Z M 2.5449219,112.76953 c 9.5771021,19.08414 28.0398921,56.52079 35.3378901,79.98828 0.79552,2.55808 1.6802,6.74735 2.558594,11.39453 C 37.616929,195.53618 33.65825,187.34881 27.835938,179.79102 23.136565,173.69088 17.298898,167.73837 9.9570312,162.67969 0.24373328,155.98704 -9.659201,151.93076 -16.716797,148.37695 c -7.253365,-3.65239 -17.531999,-9.5467 -27.654297,-15.47461 z M 44.666016,230.15625 c 0.03359,0.23805 0.318359,2.09961 0.318359,2.09961 l 0.05664,0.47461 0.08008,0.47265 c 0,0 0.770885,4.54889 1.414062,10.26563 0.359982,3.19962 0.549528,6.62672 0.646485,9.49805 -1.341812,0.006 -1.233031,0.0697 -3.882813,-1.76563 3.615025,2.50386 1.716491,1.91991 1.302734,-0.97851 -0.638855,-4.47528 0.162853,-11.45623 0.06445,-20.06641 z m 2.542968,25.83789 c -0.0053,0.4986 0.03968,1.59682 0.01563,1.79883 0.167147,-1.40356 -0.230594,-1.5333 -0.01563,-1.79883 z"
         id="path2501" />
    </g>
    <g
       id="path2455"
       transform="translate(-194.64549,-190.56043)">
      <path
         style="color:#000000;font-style:normal;font-variant:normal;font-weight:normal;font-stretch:normal;font-size:medium;line-height:normal;font-family:sans-serif;font-variant-ligatures:normal;font-variant-position:normal;font-variant-caps:normal;font-variant-numeric:normal;font-variant-alternates:normal;font-variant-east-asian:normal;font-feature-settings:normal;font-variation-settings:normal;text-indent:0;text-align:start;text-decoration:none;text-decoration-line:none;text-decoration-style:solid;text-decoration-color:#000000;letter-spacing:normal;word-spacing:normal;text-transform:none;writing-mode:lr-tb;direction:ltr;text-orientation:mixed;dominant-baseline:auto;baseline-shift:baseline;text-anchor:start;white-space:normal;shape-padding:0;shape-margin:0;inline-size:0;clip-rule:nonzero;display:inline;overflow:visible;visibility:visible;isolation:auto;mix-blend-mode:normal;color-interpolation:sRGB;color-interpolation-filters:linearRGB;solid-color:#000000;solid-opacity:1;vector-effect:none;fill:#922e2e;fill-opacity:1;fill-rule:nonzero;stroke:none;stroke-width:40;stroke-linecap:butt;stroke-linejoin:miter;stroke-miterlimit:4;stroke-dasharray:none;stroke-dashoffset:0;stroke-opacity:1;color-rendering:auto;image-rendering:auto;shape-rendering:auto;text-rendering:auto;enable-background:accumulate;stop-color:#000000;stop-opacity:1"
         d="m 12.079817,86.914129 c 0,0 34.05926,65.041701 44.901273,99.905341 4.329805,13.92294 7.857728,43.03041 7.857728,43.03041 0,0 3.443015,20.24897 2.245069,30.30836 -0.433783,3.64256 -2.737719,8.45697 -5.799743,10.47697 -3.346195,2.20747 -10.040546,2.71394 -14.031667,2.33859 -6.610646,-0.6217 -9.882874,-1.55139 -15.341266,-5.33201 -4.448104,-3.08087 -6.344693,-9.23637 -7.109354,-14.59293 -1.851303,-12.96863 1.36422,-26.4786 -2.338623,-39.56923 -2.448041,-8.65454 -5.149901,-14.57765 -10.470306,-21.48393 -3.3769487,-4.38353 -8.3718902,-9.39376 -13.3834976,-12.84685 -7.2689733,-5.00846 -16.4372914,-8.93906 -24.3215314,-12.90912 -21.514283,-10.8334 -62.487598,-36.2952 -62.487598,-36.2952 z"
         id="path2459" />
      <path
         style="color:#000000;font-style:normal;font-variant:normal;font-weight:normal;font-stretch:normal;font-size:medium;line-height:normal;font-family:sans-serif;font-variant-ligatures:normal;font-variant-position:normal;font-variant-caps:normal;font-variant-numeric:normal;font-variant-alternates:normal;font-variant-east-asian:normal;font-feature-settings:normal;font-variation-settings:normal;text-indent:0;text-align:start;text-decoration:none;text-decoration-line:none;text-decoration-style:solid;text-decoration-color:#000000;letter-spacing:normal;word-spacing:normal;text-transform:none;writing-mode:lr-tb;direction:ltr;text-orientation:mixed;dominant-baseline:auto;baseline-shift:baseline;text-anchor:start;white-space:normal;shape-padding:0;shape-margin:0;inline-size:0;clip-rule:nonzero;display:inline;overflow:visible;visibility:visible;isolation:auto;mix-blend-mode:normal;color-interpolation:sRGB;color-interpolation-filters:linearRGB;solid-color:#000000;solid-opacity:1;vector-effect:none;fill:#922e2e;fill-opacity:1;fill-rule:nonzero;stroke:none;stroke-linecap:butt;stroke-linejoin:miter;stroke-miterlimit:4;stroke-dasharray:none;stroke-dashoffset:0;stroke-opacity:1;color-rendering:auto;image-rendering:auto;shape-rendering:auto;text-rendering:auto;enable-background:accumulate;stop-color:#000000;stop-opacity:1"
         d="M 21.208984,61.234375 4.1933594,68.535156 -131.33008,126.68945 l 32.574221,20.24219 c 0,0 40.40182,25.26455 64.048828,37.17188 8.710884,4.38631 17.144101,8.18939 21.96875,11.51367 2.681348,1.8475 6.8321941,5.91706 8.8867185,8.58398 3.944284,5.11997 5.0208001,7.47703 7.0703125,14.72266 1.896513,6.70472 -0.8005802,18.85142 1.7832031,36.95117 1.115566,7.8147 3.0102518,19.54339 15.5214849,28.20898 7.27243,5.03707 17.006836,8.06461 24.855468,8.80274 7.736574,0.72759 14.510899,2.62825 26.917969,-5.55664 11.405647,-7.52424 13.474082,-14.96175 14.646484,-24.80664 1.051363,-8.8285 0.120641,-16.60476 -0.658203,-23.52735 -0.778844,-6.92258 -1.728515,-12.49804 -1.728515,-12.49804 l 0.136718,0.94531 c 0,0 -2.853036,-28.03355 -8.615234,-46.5625 C 63.80372,141.41121 29.796875,77.636719 29.796875,77.636719 Z M 2.5449219,112.76953 c 9.5771021,19.08414 28.0398921,56.52079 35.3378901,79.98828 0.79552,2.55808 1.6802,6.74735 2.558594,11.39453 C 37.616929,195.53618 33.65825,187.34881 27.835938,179.79102 23.136565,173.69088 17.298898,167.73837 9.9570312,162.67969 0.24373328,155.98704 -9.659201,151.93076 -16.716797,148.37695 c -7.253365,-3.65239 -17.531999,-9.5467 -27.654297,-15.47461 z M 44.666016,230.15625 c 0.03359,0.23805 0.318359,2.09961 0.318359,2.09961 l 0.05664,0.47461 0.08008,0.47265 c 0,0 0.770885,4.54889 1.414062,10.26563 0.359982,3.19962 0.549528,6.62672 0.646485,9.49805 -1.341812,0.006 -1.233031,0.0697 -3.882813,-1.76563 3.615025,2.50386 1.716491,1.91991 1.302734,-0.97851 -0.638855,-4.47528 0.162853,-11.45623 0.06445,-20.06641 z m 2.542968,25.83789 c -0.0053,0.4986 0.03968,1.59682 0.01563,1.79883 0.167147,-1.40356 -0.230594,-1.5333 -0.01563,-1.79883 z"
         id="path2461" />
    </g>
    <path
       style="fill:#ffaacc;fill-opacity:1;stroke:none;stroke-width:0.264583px;stroke-linecap:butt;stroke-linejoin:miter;stroke-opacity:1"
       d="m -182.56567,-103.6463 c 0,0 34.05926,65.041697 44.90127,99.9053367 4.32981,13.9229403 7.85773,43.0304103 7.85773,43.0304103 0,0 3.44302,20.24897 2.24507,30.30836 -0.43378,3.64256 -2.73772,8.45697 -5.79974,10.47697 -3.3462,2.20747 -10.04055,2.71394 -14.03167,2.33859 -6.61065,-0.6217 -9.88288,-1.55139 -15.34127,-5.33201 -4.4481,-3.08087 -6.34469,-9.23637 -7.10935,-14.59293 -1.85131,-12.96863 1.36422,-26.4786 -2.33863,-39.56923 -2.44804,-8.65454 -5.1499,-14.5776503 -10.4703,-21.4839303 -3.37695,-4.38353 -8.37189,-9.39376 -13.3835,-12.8468497 -7.26897,-5.00846 -16.43729,-8.93906 -24.32153,-12.90912 -21.51428,-10.8334 -62.4876,-36.2952 -62.4876,-36.2952 z"
       id="path2453"
       sodipodi:nodetypes="cscssssssssscc" />
    <path
       id="path2463"
       style="fill:#ff82b4;fill-opacity:1;stroke:none;stroke-width:0.264583px;stroke-linecap:butt;stroke-linejoin:miter;stroke-opacity:1"
       d="m -182.56575,-103.64644 -100.27965,43.030461 c 0,0 40.97337,25.462044 62.48765,36.295461 6.9904,3.519964 14.98756,7.010162 21.77799,11.246856 a 79.325591,79.325591 0 0 0 49.4249,-20.752223 c -14.16277,-33.062095 -33.41089,-69.820555 -33.41089,-69.820555 z" />
    <path
       style="fill:#ffaacc;fill-rule:evenodd;stroke-width:0.264583"
       d="m -301.55364,-404.85905 a 79.325591,79.325591 0 0 0 -77.39425,61.92438 79.325591,79.325591 0 0 0 -54.20961,-21.51341 79.325591,79.325591 0 0 0 -56.19863,23.23424 79.325591,79.325591 0 0 0 -19.8515,79.00861 79.325591,79.325591 0 0 1 0.34467,-0.0367 79.325591,79.325591 0 0 0 -71.07886,78.89596 79.325591,79.325591 0 0 0 67.35403,78.41693 79.325591,79.325591 0 0 0 23.23166,55.503576 79.325591,79.325591 0 0 0 110.40824,1.720824 79.325591,79.325591 0 0 0 77.39372,61.924379 79.325591,79.325591 0 0 0 71.79561,-45.592047 79.325591,79.325591 0 0 1 -0.18087,0.382931 79.325591,79.325591 0 0 0 83.25953,-18.436087 79.325591,79.325591 0 0 0 23.23217,-55.503576 79.325591,79.325591 0 0 0 67.354026,-78.41693 79.325591,79.325591 0 0 0 -70.735216,-78.85927 79.325591,79.325591 0 0 0 -19.8515,-79.00861 79.325591,79.325591 0 0 0 -56.19811,-23.23424 79.325591,79.325591 0 0 0 -27.0609,4.79764 79.325591,79.325591 0 0 0 -71.61421,-45.20861 z"
       id="path2080" />
    <path
       id="path1736"
       style="fill:#ff82b4;fill-opacity:1;fill-rule:evenodd;stroke-width:0.264583"
       d="m -500.78869,-262.67135 c -43.74294,0.095 -79.1533,35.58235 -79.15331,79.32539 1.2e-4,43.81015 35.51524,79.32527 79.32539,79.32538 5.39211,-1.4e-4 10.77015,-0.55006 16.0507,-1.64124 -20.15543,-6.26076 -4.78898,-23.45238 -17.69101,-28.94199 -12.66257,-5.38772 -20.67057,-41.17758 -18.53564,-58.82875 2.86882,-23.71883 16.28244,-51.02332 31.52142,-59.0275 12.71936,-6.68076 -5.50172,-10.18606 -11.34547,-10.21129 -0.0574,-6e-5 -0.11472,-6e-5 -0.17208,0 z"
       sodipodi:nodetypes="ccccssscc" />
    <path
       id="circle1771"
       style="fill:#ff82b4;fill-opacity:1;fill-rule:evenodd;stroke-width:0.264583"
       d="m -433.15768,-364.44756 c -21.07549,-0.0285 -41.29597,8.33112 -56.19864,23.23372 -23.83029,23.8304 -30.00188,60.11675 -15.38975,90.48543 1.34547,-3.28982 2.32699,-5.69939 2.32699,-5.69939 l 25.8673,-2.71302 c 14.96682,-52.90208 69.304,-77.71602 114.1102,-58.26103 -3.85853,-7.94321 -8.48714,-17.56763 -14.7314,-23.81198 -14.85025,-14.85018 -34.98335,-23.20544 -55.9847,-23.23372 z"
       sodipodi:nodetypes="ccccccccc" />
    <path
       id="circle1777"
       style="fill:#ff82b4;fill-opacity:1;fill-rule:evenodd;stroke-width:0.999999"
       d="m 1232.4727,0 c -155.8123,0.00124724 -285.65173,119.35241 -298.74809,274.61328 1.52084,-0.69872 6.7168,-3.08398 6.7168,-3.08398 l 34.87109,37.28906 c 161.2017,-129.74668 427.8074,-98.37999 528.5137,48.66016 -0.8006,-5.67733 -0.064,-36.07318 -0.7793,-42.2129 l 9.4551,-24.64453 19.2695,15.76758 c 0.3184,-2.0486 0.5175,-4.21478 0.5176,-6.57422 C 1532.2897,134.2312 1398.0559,-6.8031496e-4 1232.4727,0 Z"
       transform="matrix(0.26458333,0,0,0.26458333,-627.64633,-404.85906)"
       sodipodi:nodetypes="cccccccccc" />
    <path
       id="circle1795"
       style="fill:#ffcfe2;fill-opacity:1;fill-rule:evenodd;stroke-width:0.219654"
       d="m -106.74506,-207.98528 c -1.35667,31.8384 -33.02481,82.42425 -67.37675,86.88978 0,0 4.73366,1.23518 7.17491,1.60473 2.39155,0.36203 7.32343,0.58997 7.32343,0.58997 11.15944,1.04089 29.2466,-5.49032 40.06266,-14.48832 13.74455,-11.43423 23.022399,-28.85801 22.948475,-51.43272 0,0 -0.213784,-7.18529 -1.632321,-10.62973 -2.008134,-4.8761 -8.500404,-12.53371 -8.500404,-12.53371 z"
       sodipodi:nodetypes="ccscscsc" />
    <path
       id="circle1801"
       style="fill:#ff82b4;fill-opacity:1;fill-rule:evenodd;stroke-width:0.264583"
       d="m -202.87768,-364.44756 c -14.11658,0.0189 -27.8383,3.80501 -39.82961,10.7921 l 8.04654,5.15266 4.69582,27.05778 c 14.5236,0.79857 33.65311,7.17808 45.50307,19.91736 9.64327,10.36696 18.3656,31.73824 20.44485,45.89361 v 0 l 19.05,-1.85209 15.24043,3.29954 c 12.60147,-29.75436 5.89561,-64.17858 -16.95299,-87.02724 -14.90255,-14.90247 -35.12281,-23.26204 -56.19811,-23.23372 z"
       sodipodi:nodetypes="scccsccccss" />
    <path
       id="circle2404"
       style="fill:#ffcfe2;fill-opacity:1;fill-rule:evenodd;stroke-width:0.219654"
       d="m -174.90265,-115.11136 a 76.332174,76.332174 0 0 1 -49.59025,40.506569 l 1.05471,13.983626 a 65.855209,65.855209 0 0 0 0.83561,0.0053 65.855209,65.855209 0 0 0 64.22607,-51.299185 l -3.25925,-0.0502 z" />
    <path
       id="circle1740"
       style="fill:#922e2e;fill-opacity:1;fill-rule:evenodd;stroke-width:0.264583"
       d="m -301.55364,-404.85905 a 79.325591,79.325591 0 0 0 -77.39425,61.92438 79.325591,79.325591 0 0 0 -54.20961,-21.51341 79.325591,79.325591 0 0 0 -56.19863,23.23424 79.325591,79.325591 0 0 0 -19.8515,79.00861 79.325591,79.325591 0 0 1 0.34467,-0.0367 79.325591,79.325591 0 0 0 -71.07886,78.89596 79.325591,79.325591 0 0 0 67.35403,78.41693 79.325591,79.325591 0 0 0 23.23166,55.503576 79.325591,79.325591 0 0 0 110.40824,1.720824 79.325591,79.325591 0 0 0 77.39372,61.924379 79.325591,79.325591 0 0 0 71.79561,-45.592047 79.325591,79.325591 0 0 1 -0.18087,0.382931 79.325591,79.325591 0 0 0 83.25953,-18.436087 79.325591,79.325591 0 0 0 23.23217,-55.503576 79.325591,79.325591 0 0 0 67.354026,-78.41693 79.325591,79.325591 0 0 0 -70.735216,-78.85927 79.325591,79.325591 0 0 0 -19.8515,-79.00861 79.325591,79.325591 0 0 0 -56.19811,-23.23424 79.325591,79.325591 0 0 0 -27.0609,4.79764 79.325591,79.325591 0 0 0 -71.61421,-45.20861 z m 0.74827,36.6696 a 69.97116,69.97116 0 0 1 69.97091,69.97092 69.97116,69.97116 0 0 1 -0.71779,9.99939 79.325591,79.325591 0 0 0 9.324,-37.314 79.325591,79.325591 0 0 0 0,-0.17209 79.325591,79.325591 0 0 0 -0.73486,-10.60142 69.97116,69.97116 0 0 1 49.82488,20.49281 69.97116,69.97116 0 0 1 20.26851,55.08552 79.325591,79.325591 0 0 0 -19.86388,7.38095 69.97116,69.97116 0 0 1 9.99937,-0.71778 69.97116,69.97116 0 0 1 69.970943,69.97092 69.97116,69.97116 0 0 1 -69.970943,69.97143 69.97116,69.97116 0 0 1 -13.7764,-1.36993 79.325591,79.325591 0 0 0 21.55475,9.0289 69.97116,69.97116 0 0 1 -18.18235,31.638376 69.97116,69.97116 0 0 1 -49.82538,20.4928 79.325591,79.325591 0 0 0 0.73483,-10.601405 79.325591,79.325591 0 0 0 0,-0.172085 79.325591,79.325591 0 0 0 -9.32397,-37.314006 69.97116,69.97116 0 0 1 0.71779,9.999376 69.97116,69.97116 0 0 1 -69.97094,69.97094 69.97116,69.97116 0 0 1 -69.97142,-69.97094 69.97116,69.97116 0 0 1 1.36993,-13.776406 79.325591,79.325591 0 0 0 -11.47267,41.091036 79.325591,79.325591 0 0 0 0.0475,2.722298 69.97116,69.97116 0 0 1 -82.06526,-12.441608 69.97116,69.97116 0 0 1 0,-98.954166 69.97116,69.97116 0 0 1 10.70994,-8.77259 79.325591,79.325591 0 0 0 -37.16827,20.94342 79.325591,79.325591 0 0 0 -20.88711,36.93883 69.97116,69.97116 0 0 1 -33.029,-59.42427 69.97116,69.97116 0 0 1 69.97094,-69.97092 69.97116,69.97116 0 0 1 9.99938,0.71778 79.325591,79.325591 0 0 0 -19.86442,-7.38095 69.97116,69.97116 0 0 1 20.26854,-55.08552 69.97116,69.97116 0 0 1 98.95417,0 69.97116,69.97116 0 0 1 6.56291,7.57835 79.325591,79.325591 0 0 0 -7.752,-17.51469 69.97116,69.97116 0 0 1 64.32735,-42.43927 z m 71.53103,9.972 a 79.325591,79.325591 0 0 1 0.15761,0.3514 79.325591,79.325591 0 0 0 -0.15761,-0.3514 z m 1.37046,3.21841 a 79.325591,79.325591 0 0 1 0.13073,0.32866 79.325591,79.325591 0 0 0 -0.13073,-0.32866 z m 0.82113,2.14147 a 79.325591,79.325591 0 0 1 0.12713,0.34933 79.325591,79.325591 0 0 0 -0.12713,-0.34933 z m 0.63717,1.8035 a 79.325591,79.325591 0 0 1 0.12301,0.36484 79.325591,79.325591 0 0 0 -0.12301,-0.36484 z m 1.05214,3.33727 a 79.325591,79.325591 0 0 1 0.0982,0.33899 79.325591,79.325591 0 0 0 -0.0982,-0.33899 z m 0.63096,2.2934 a 79.325591,79.325591 0 0 1 0.0713,0.27647 79.325591,79.325591 0 0 0 -0.0713,-0.27647 z m 0.28112,1.11931 a 79.325591,79.325591 0 0 1 0.0677,0.27905 79.325591,79.325591 0 0 0 -0.0677,-0.27905 z m -152.46252,3.32021 a 79.325591,79.325591 0 0 1 0.27077,0.2744 79.325591,79.325591 0 0 0 -0.27077,-0.2744 z m 153.85261,3.78271 a 79.325591,79.325591 0 0 1 0.0532,0.36277 79.325591,79.325591 0 0 0 -0.0532,-0.36277 z m -148.21678,2.54197 a 79.325591,79.325591 0 0 1 0.15968,0.19999 79.325591,79.325591 0 0 0 -0.15968,-0.19999 z m 1.41698,1.82624 a 79.325591,79.325591 0 0 1 0.20153,0.2682 79.325591,79.325591 0 0 0 -0.20153,-0.2682 z m 0.46043,0.61754 a 79.325591,79.325591 0 0 1 0.22788,0.31057 79.325591,79.325591 0 0 0 -0.22788,-0.31057 z m 0.90278,1.24902 a 79.325591,79.325591 0 0 1 0.15502,0.21962 79.325591,79.325591 0 0 0 -0.15502,-0.21962 z m 1.094,1.58543 a 79.325591,79.325591 0 0 1 0.15812,0.23564 79.325591,79.325591 0 0 0 -0.15812,-0.23564 z m 0.42685,0.6413 a 79.325591,79.325591 0 0 1 0.18294,0.27906 79.325591,79.325591 0 0 0 -0.18294,-0.27906 z m 0.62839,0.96997 a 79.325591,79.325591 0 0 1 0.20619,0.32504 79.325591,79.325591 0 0 0 -0.20619,-0.32504 z m -133.14228,65.1061 a 79.325591,79.325591 0 0 1 0.385,0.006 79.325591,79.325591 0 0 0 -0.385,-0.006 z m -3.23701,0.0212 a 79.325591,79.325591 0 0 0 -0.34105,0.01 79.325591,79.325591 0 0 1 0.34105,-0.01 z m 4.3925,0.003 a 79.325591,79.325591 0 0 1 0.2961,0.009 79.325591,79.325591 0 0 0 -0.2961,-0.009 z m -5.11855,0.0196 a 79.325591,79.325591 0 0 0 -0.76999,0.0315 79.325591,79.325591 0 0 1 0.76999,-0.0315 z m -1.15496,0.0501 a 79.325591,79.325591 0 0 0 -0.76895,0.0429 79.325591,79.325591 0 0 1 0.76895,-0.0429 z m -1.66968,0.10283 a 79.325591,79.325591 0 0 0 -0.2527,0.0181 79.325591,79.325591 0 0 1 0.2527,-0.0181 z m 11.4055,0.002 a 79.325591,79.325591 0 0 1 0.33489,0.0248 79.325591,79.325591 0 0 0 -0.33489,-0.0248 z m -12.06386,0.0481 a 79.325591,79.325591 0 0 0 -0.36224,0.03 79.325591,79.325591 0 0 1 0.36224,-0.03 z m 364.62994,0.0481 a 79.325591,79.325591 0 0 0 -0.32555,0.0289 79.325591,79.325591 0 0 1 0.32555,-0.0289 z m -365.37561,0.0155 a 79.325591,79.325591 0 0 0 -0.7674,0.0729 79.325591,79.325591 0 0 1 0.7674,-0.0729 z m 15.49516,0.12816 a 79.325591,79.325591 0 0 1 0.1814,0.0196 79.325591,79.325591 0 0 0 -0.1814,-0.0196 z m 0.76586,0.0853 a 79.325591,79.325591 0 0 1 0.38241,0.0455 79.325591,79.325591 0 0 0 -0.38241,-0.0455 z m 2.67269,0.35708 a 79.325591,79.325591 0 0 1 0.37002,0.0568 79.325591,79.325591 0 0 0 -0.37002,-0.0568 z m 339.07854,0.40773 a 79.325591,79.325591 0 0 0 -0.2155,0.0398 79.325591,79.325591 0 0 1 0.2155,-0.0398 z m -360.67928,137.26289 a 79.325591,79.325591 0 0 0 -0.0894,0.37468 79.325591,79.325591 0 0 1 0.0894,-0.37468 z m -0.66508,3.01532 a 79.325591,79.325591 0 0 0 -0.0439,0.22067 79.325591,79.325591 0 0 1 0.0439,-0.22067 z m 364.48989,16.29151 a 79.325591,79.325591 0 0 0 0.76377,0.1044 79.325591,79.325591 0 0 1 -0.76377,-0.1044 z m 1.14567,0.15348 a 79.325591,79.325591 0 0 0 0.7648,0.0935 79.325591,79.325591 0 0 1 -0.7648,-0.0935 z m 19.00349,0.11782 a 79.325591,79.325591 0 0 1 -0.38291,0.0429 79.325591,79.325591 0 0 1 -0.23151,0.0249 79.325591,79.325591 0 0 0 0.23151,-0.0249 79.325591,79.325591 0 0 0 0.38291,-0.0429 z m -16.70648,0.14005 a 79.325591,79.325591 0 0 0 1.15085,0.10387 79.325591,79.325591 0 0 0 1.15237,0.0868 79.325591,79.325591 0 0 1 -1.15237,-0.0868 79.325591,79.325591 0 0 1 -1.15085,-0.10387 z m 12.86952,0.20465 a 79.325591,79.325591 0 0 1 -0.38447,0.0243 79.325591,79.325591 0 0 1 -0.38449,0.0222 79.325591,79.325591 0 0 1 -0.38447,0.0206 79.325591,79.325591 0 0 1 -0.38499,0.0185 79.325591,79.325591 0 0 1 -0.385,0.0164 79.325591,79.325591 0 0 1 -0.35965,0.014 79.325591,79.325591 0 0 0 0.35965,-0.014 79.325591,79.325591 0 0 0 0.385,-0.0164 79.325591,79.325591 0 0 0 0.38499,-0.0185 79.325591,79.325591 0 0 0 0.38447,-0.0206 79.325591,79.325591 0 0 0 0.38449,-0.0222 79.325591,79.325591 0 0 0 0.38447,-0.0243 z m -7.87292,0.12351 a 79.325591,79.325591 0 0 0 1.15496,0.031 79.325591,79.325591 0 0 0 1.15549,0.014 79.325591,79.325591 0 0 1 -1.15549,-0.014 79.325591,79.325591 0 0 1 -1.15496,-0.031 z m -241.45605,53.306821 a 79.325591,79.325591 0 0 0 0.14314,0.757053 79.325591,79.325591 0 0 1 -0.14314,-0.757053 z m 0.24183,1.258306 a 79.325591,79.325591 0 0 0 0.20929,1.008724 79.325591,79.325591 0 0 0 0.0816,0.37674 79.325591,79.325591 0 0 0 0.0832,0.375682 79.325591,79.325591 0 0 1 -0.0832,-0.375682 79.325591,79.325591 0 0 1 -0.0816,-0.37674 79.325591,79.325591 0 0 1 -0.20929,-1.008724 z m 152.48527,11.059795 a 79.325591,79.325591 0 0 1 -0.11059,0.309033 79.325591,79.325591 0 0 0 0.11059,-0.309033 z m -0.11162,0.311626 a 79.325591,79.325591 0 0 1 -0.11161,0.30644 79.325591,79.325591 0 0 0 0.11161,-0.30644 z m -0.29766,0.808725 a 79.325591,79.325591 0 0 1 -0.10282,0.273368 79.325591,79.325591 0 0 0 0.10282,-0.273368 z m -0.39738,1.039734 a 79.325591,79.325591 0 0 1 -0.0982,0.251671 79.325591,79.325591 0 0 0 0.0982,-0.251671 z m -1.33067,3.203416 a 79.325591,79.325591 0 0 1 -0.12557,0.283183 79.325591,79.325591 0 0 0 0.12557,-0.283183 z m -0.293,0.65577 a 79.325591,79.325591 0 0 1 -0.13282,0.292496 79.325591,79.325591 0 0 0 0.13282,-0.292496 z" />
    <path
       id="circle2406"
       style="fill:#ffcfe2;fill-opacity:1;fill-rule:evenodd;stroke-width:0.219654"
       d="m -367.36576,-102.65809 -0.26672,6.563656 c 1.7e-4,36.370788 31.20441,66.648752 67.57519,66.648646 36.37058,-1.85e-4 65.32555,-23.795778 65.32573,-60.166355 v -11.378117 c -6.54034,28.52772 -32.2988,53.733146 -63.2587,53.444776 -33.59872,-2.110131 -63.33678,-24.881416 -69.3755,-55.112606 z"
       sodipodi:nodetypes="ccscccc" />
    <path
       id="circle2408"
       style="fill:#ffcfe2;fill-opacity:1;fill-rule:evenodd;stroke-width:0.219654"
       d="m -477.77905,-137.46804 0.0479,11.83224 c -1.2e-4,36.370787 28.54866,64.452077 65.38717,65.668337 l 4.4764,0.0175 18.76828,-1.93413 c -31.7325,-12.04275 -84.21424,-41.232137 -88.67971,-75.583917 z"
       sodipodi:nodetypes="cccccc" />
    <path
       style="fill:#00ff00;fill-rule:evenodd;stroke-width:0.264583"
       d="m -382.8741,88.514127 a 79.325591,79.325591 0 0 1 -0.1328,0.29249 79.325591,79.325591 0 0 0 0.1328,-0.29249 z"
       id="path2176" />
    <path
       style="fill:#00ff00;fill-rule:evenodd;stroke-width:0.264583"
       d="m -382.5811,87.858357 a 79.325591,79.325591 0 0 1 -0.1256,0.28318 79.325591,79.325591 0 0 0 0.1256,-0.28318 z"
       id="path2174" />
    <path
       style="fill:#00ff00;fill-rule:evenodd;stroke-width:0.264583"
       d="m -381.2504,84.654937 a 79.325591,79.325591 0 0 1 -0.098,0.25167 79.325591,79.325591 0 0 0 0.098,-0.25167 z"
       id="path2172" />
    <path
       style="fill:#00ff00;fill-rule:evenodd;stroke-width:0.264583"
       d="m -380.853,83.615207 a 79.325591,79.325591 0 0 1 -0.1029,0.27336 79.325591,79.325591 0 0 0 0.1029,-0.27336 z"
       id="path2170" />
    <path
       style="fill:#00ff00;fill-rule:evenodd;stroke-width:0.264583"
       d="m -380.5554,82.806477 a 79.325591,79.325591 0 0 1 -0.1116,0.30644 79.325591,79.325591 0 0 0 0.1116,-0.30644 z"
       id="path2168" />
    <path
       style="fill:#00ff00;fill-rule:evenodd;stroke-width:0.264583"
       d="m -380.4438,82.494847 a 79.325591,79.325591 0 0 1 -0.1106,0.30904 79.325591,79.325591 0 0 0 0.1106,-0.30904 z"
       id="path2166" />
    <path
       style="fill:#00ff00;fill-rule:evenodd;stroke-width:0.264583"
       d="m -532.929,71.435057 a 79.325591,79.325591 0 0 0 0.2093,1.00872 79.325591,79.325591 0 0 0 0.082,0.37674 79.325591,79.325591 0 0 0 0.083,0.37569 79.325591,79.325591 0 0 1 -0.083,-0.37569 79.325591,79.325591 0 0 1 -0.082,-0.37674 79.325591,79.325591 0 0 1 -0.2093,-1.00872 z"
       id="path2164" />
    <path
       style="fill:#00ff00;fill-rule:evenodd;stroke-width:0.264583"
       d="m -533.1708,70.176747 a 79.325591,79.325591 0 0 0 0.1431,0.75706 79.325591,79.325591 0 0 1 -0.1431,-0.75706 z"
       id="path2162" />
    <path
       style="fill:#00ff00;fill-rule:evenodd;stroke-width:0.264583"
       d="m -291.71481,16.86993 a 79.325591,79.325591 0 0 0 1.15496,0.031 79.325591,79.325591 0 0 0 1.15549,0.014 79.325591,79.325591 0 0 1 -1.15549,-0.014 79.325591,79.325591 0 0 1 -1.15496,-0.031 z"
       id="path2160" />
    <path
       style="fill:#00ff00;fill-rule:evenodd;stroke-width:0.264583"
       d="m -283.8419,16.74643 a 79.325591,79.325591 0 0 1 -0.38446,0.0243 79.325591,79.325591 0 0 1 -0.38449,0.0222 79.325591,79.325591 0 0 1 -0.38447,0.0206 79.325591,79.325591 0 0 1 -0.385,0.0185 79.325591,79.325591 0 0 1 -0.38499,0.0164 79.325591,79.325591 0 0 1 -0.35965,0.014 79.325591,79.325591 0 0 0 0.35965,-0.014 79.325591,79.325591 0 0 0 0.38499,-0.0164 79.325591,79.325591 0 0 0 0.385,-0.0185 79.325591,79.325591 0 0 0 0.38447,-0.0206 79.325591,79.325591 0 0 0 0.38449,-0.0222 79.325591,79.325591 0 0 0 0.38446,-0.0243 z"
       id="path2158" />
    <path
       style="fill:#00ff00;fill-rule:evenodd;stroke-width:0.264583"
       d="m -296.71141,16.54177 a 79.325591,79.325591 0 0 0 1.15085,0.10388 79.325591,79.325591 0 0 0 1.15237,0.0868 79.325591,79.325591 0 0 1 -1.15237,-0.0868 79.325591,79.325591 0 0 1 -1.15085,-0.10388 z"
       id="path2156" />
    <path
       style="fill:#00ff00;fill-rule:evenodd;stroke-width:0.264583"
       d="m -280.00493,16.40173 a 79.325591,79.325591 0 0 1 -0.38291,0.0429 79.325591,79.325591 0 0 1 -0.23151,0.0249 79.325591,79.325591 0 0 0 0.23151,-0.0249 79.325591,79.325591 0 0 0 0.38291,-0.0429 z"
       id="path2154" />
    <path
       style="fill:#00ff00;fill-rule:evenodd;stroke-width:0.264583"
       d="m -299.00842,16.28391 a 79.325591,79.325591 0 0 0 0.7648,0.0935 79.325591,79.325591 0 0 1 -0.7648,-0.0935 z"
       id="path2152" />
    <path
       style="fill:#00ff00;fill-rule:evenodd;stroke-width:0.264583"
       d="m -300.15409,16.13042 a 79.325591,79.325591 0 0 0 0.76377,0.10441 79.325591,79.325591 0 0 1 -0.76377,-0.10441 z"
       id="path2150" />
    <path
       style="fill:#00ff00;fill-rule:evenodd;stroke-width:0.264583"
       d="m -627.60233,73.922251 a 79.325591,79.325591 0 0 0 -0.044,0.22066 79.325591,79.325591 0 0 1 0.044,-0.22066 z"
       id="path2148" />
    <path
       style="fill:#00ff00;fill-rule:evenodd;stroke-width:0.264583"
       d="m -626.93723,70.906921 a 79.325591,79.325591 0 0 0 -0.089,0.37468 79.325591,79.325591 0 0 1 0.089,-0.37468 z"
       id="path2146" />
    <path
       style="fill:#00ff00;fill-rule:evenodd;stroke-width:0.264583"
       d="m -303.29962,-140.4393 a 79.325591,79.325591 0 0 0 -0.2155,0.0398 79.325591,79.325591 0 0 1 0.2155,-0.0398 z"
       id="path2144" />
    <path
       style="fill:#00ff00;fill-rule:evenodd;stroke-width:0.264583"
       d="m -605.33643,-66.763697 a 79.325591,79.325591 0 0 1 0.37,0.05684 79.325591,79.325591 0 0 0 -0.37,-0.05684 z"
       id="path2142" />
    <path
       style="fill:#00ff00;fill-rule:evenodd;stroke-width:0.264583"
       d="m -608.00913,-67.120781 a 79.325591,79.325591 0 0 1 0.3824,0.04547 79.325591,79.325591 0 0 0 -0.3824,-0.04547 z"
       id="path2140" />
    <path
       style="fill:#00ff00;fill-rule:evenodd;stroke-width:0.264583"
       d="m -608.77503,-67.206048 a 79.325591,79.325591 0 0 1 0.1814,0.01963 79.325591,79.325591 0 0 0 -0.1814,-0.01963 z"
       id="path2138" />
    <path
       style="fill:#00ff00;fill-rule:evenodd;stroke-width:0.264583"
       d="m -624.27023,-67.334204 a 79.325591,79.325591 0 0 0 -0.7674,0.07286 79.325591,79.325591 0 0 1 0.7674,-0.07286 z"
       id="path2136" />
    <path
       style="fill:#00ff00;fill-rule:evenodd;stroke-width:0.264583"
       d="m -295.93626,-141.43304 a 79.325591,79.325591 0 0 0 -0.32555,0.0289 79.325591,79.325591 0 0 1 0.32555,-0.0289 z"
       id="path2134" />
    <path
       style="fill:#00ff00;fill-rule:evenodd;stroke-width:0.264583"
       d="m -623.52453,-67.397768 a 79.325591,79.325591 0 0 0 -0.3622,0.02997 79.325591,79.325591 0 0 1 0.3622,-0.02997 z"
       id="path2132" />
    <path
       style="fill:#00ff00;fill-rule:evenodd;stroke-width:0.264583"
       d="m -611.46063,-67.445827 a 79.325591,79.325591 0 0 1 0.3349,0.02479 79.325591,79.325591 0 0 0 -0.3349,-0.02479 z"
       id="path2130" />
    <path
       style="fill:#00ff00;fill-rule:evenodd;stroke-width:0.264583"
       d="m -622.86613,-67.447414 a 79.325591,79.325591 0 0 0 -0.2527,0.0181 79.325591,79.325591 0 0 1 0.2527,-0.0181 z"
       id="path2128" />
    <path
       style="fill:#00ff00;fill-rule:evenodd;stroke-width:0.264583"
       d="m -621.19643,-67.55025 a 79.325591,79.325591 0 0 0 -0.769,0.04289 79.325591,79.325591 0 0 1 0.769,-0.04289 z"
       id="path2126" />
    <path
       style="fill:#00ff00;fill-rule:evenodd;stroke-width:0.264583"
       d="m -620.04153,-67.600375 a 79.325591,79.325591 0 0 0 -0.77,0.03152 79.325591,79.325591 0 0 1 0.77,-0.03152 z"
       id="path2124" />
    <path
       style="fill:#00ff00;fill-rule:evenodd;stroke-width:0.264583"
       d="m -614.92293,-67.620007 a 79.325591,79.325591 0 0 1 0.2961,0.0093 79.325591,79.325591 0 0 0 -0.2961,-0.0093 z"
       id="path2122" />
    <path
       style="fill:#00ff00;fill-rule:evenodd;stroke-width:0.264583"
       d="m -619.31543,-67.623103 a 79.325591,79.325591 0 0 0 -0.3411,0.0098 79.325591,79.325591 0 0 1 0.3411,-0.0098 z"
       id="path2120" />
    <path
       style="fill:#00ff00;fill-rule:evenodd;stroke-width:0.264583"
       d="m -616.07843,-67.644296 a 79.325591,79.325591 0 0 1 0.385,0.0062 79.325591,79.325591 0 0 0 -0.385,-0.0062 z"
       id="path2118" />
    <path
       style="fill:#00ff00;fill-rule:evenodd;stroke-width:0.264583"
       d="m -519.9779,-206.83373 a 79.325591,79.325591 0 0 1 0.2062,0.32504 79.325591,79.325591 0 0 0 -0.2062,-0.32504 z"
       id="path2116" />
    <path
       style="fill:#00ff00;fill-rule:evenodd;stroke-width:0.264583"
       d="m -520.6062,-207.8037 a 79.325591,79.325591 0 0 1 0.1829,0.27905 79.325591,79.325591 0 0 0 -0.1829,-0.27905 z"
       id="path2114" />
    <path
       style="fill:#00ff00;fill-rule:evenodd;stroke-width:0.264583"
       d="m -521.0331,-208.445 a 79.325591,79.325591 0 0 1 0.1581,0.23564 79.325591,79.325591 0 0 0 -0.1581,-0.23564 z"
       id="path2112" />
    <path
       style="fill:#00ff00;fill-rule:evenodd;stroke-width:0.264583"
       d="m -522.1271,-210.03044 a 79.325591,79.325591 0 0 1 0.155,0.21963 79.325591,79.325591 0 0 0 -0.155,-0.21963 z"
       id="path2110" />
    <path
       style="fill:#00ff00;fill-rule:evenodd;stroke-width:0.264583"
       d="m -523.0299,-211.27945 a 79.325591,79.325591 0 0 1 0.2279,0.31057 79.325591,79.325591 0 0 0 -0.2279,-0.31057 z"
       id="path2108" />
    <path
       style="fill:#00ff00;fill-rule:evenodd;stroke-width:0.264583"
       d="m -523.4903,-211.89699 a 79.325591,79.325591 0 0 1 0.2015,0.2682 79.325591,79.325591 0 0 0 -0.2015,-0.2682 z"
       id="path2106" />
    <path
       style="fill:#00ff00;fill-rule:evenodd;stroke-width:0.264583"
       d="m -524.9073,-213.72323 a 79.325591,79.325591 0 0 1 0.1597,0.19999 79.325591,79.325591 0 0 0 -0.1597,-0.19999 z"
       id="path2104" />
    <path
       style="fill:#00ff00;fill-rule:evenodd;stroke-width:0.264583"
       d="m -376.6905,-216.2652 a 79.325591,79.325591 0 0 1 0.053,0.36277 79.325591,79.325591 0 0 0 -0.053,-0.36277 z"
       id="path2102" />
    <path
       style="fill:#00ff00;fill-rule:evenodd;stroke-width:0.264583"
       d="m -530.5431,-220.04791 a 79.325591,79.325591 0 0 1 0.2708,0.2744 79.325591,79.325591 0 0 0 -0.2708,-0.2744 z"
       id="path2100" />
    <path
       style="fill:#00ff00;fill-rule:evenodd;stroke-width:0.264583"
       d="m -378.0806,-223.36812 a 79.325591,79.325591 0 0 1 0.068,0.27905 79.325591,79.325591 0 0 0 -0.068,-0.27905 z"
       id="path2098" />
    <path
       style="fill:#00ff00;fill-rule:evenodd;stroke-width:0.264583"
       d="m -378.3617,-224.48743 a 79.325591,79.325591 0 0 1 0.071,0.27647 79.325591,79.325591 0 0 0 -0.071,-0.27647 z"
       id="path2096" />
    <path
       style="fill:#00ff00;fill-rule:evenodd;stroke-width:0.264583"
       d="m -378.9927,-226.78083 a 79.325591,79.325591 0 0 1 0.098,0.33899 79.325591,79.325591 0 0 0 -0.098,-0.33899 z"
       id="path2094" />
    <path
       style="fill:#00ff00;fill-rule:evenodd;stroke-width:0.264583"
       d="m -380.0448,-230.1181 a 79.325591,79.325591 0 0 1 0.123,0.36484 79.325591,79.325591 0 0 0 -0.123,-0.36484 z"
       id="path2092" />
    <path
       style="fill:#00ff00;fill-rule:evenodd;stroke-width:0.264583"
       d="m -380.682,-231.9216 a 79.325591,79.325591 0 0 1 0.1271,0.34933 79.325591,79.325591 0 0 0 -0.1271,-0.34933 z"
       id="path2090" />
    <path
       style="fill:#00ff00;fill-rule:evenodd;stroke-width:0.264583"
       d="m -381.5031,-234.06307 a 79.325591,79.325591 0 0 1 0.1307,0.32866 79.325591,79.325591 0 0 0 -0.1307,-0.32866 z"
       id="path2088" />
    <path
       style="fill:#00ff00;fill-rule:evenodd;stroke-width:0.264583"
       d="m -382.8736,-237.28148 a 79.325591,79.325591 0 0 1 0.1576,0.3514 79.325591,79.325591 0 0 0 -0.1576,-0.3514 z"
       id="path2086" />
  </g>
</svg>
