<?xml version="1.0" encoding="UTF-8" standalone="no"?>
<svg
   xmlns:dc="http://purl.org/dc/elements/1.1/"
   xmlns:cc="http://creativecommons.org/ns#"
   xmlns:rdf="http://www.w3.org/1999/02/22-rdf-syntax-ns#"
   xmlns:svg="http://www.w3.org/2000/svg"
   xmlns="http://www.w3.org/2000/svg"
   xmlns:xlink="http://www.w3.org/1999/xlink"
   xmlns:sodipodi="http://sodipodi.sourceforge.net/DTD/sodipodi-0.dtd"
   xmlns:inkscape="http://www.inkscape.org/namespaces/inkscape"
   width="141.25394mm"
   height="148.73534mm"
   viewBox="0 0 141.25394 148.73534"
   version="1.1"
   id="svg1351"
   inkscape:version="1.0.2 (e86c870879, 2021-01-15, custom)"
   sodipodi:docname="ollo_0.svg">
  <defs
     id="defs1345">
    <radialGradient
       inkscape:collect="always"
       xlink:href="#linearGradient1090"
       id="radialGradient1092-5"
       cx="-4563.5479"
       cy="-2031.1886"
       fx="-4563.5479"
       fy="-2031.1886"
       r="1046.8301"
       gradientUnits="userSpaceOnUse"
       gradientTransform="matrix(0.07577193,0.0012776,-0.00113742,0.06745788,444.14393,292.0377)" />
    <linearGradient
       inkscape:collect="always"
       id="linearGradient1090">
      <stop
         style="stop-color:#ffffff;stop-opacity:1"
         offset="0"
         id="stop1086" />
      <stop
         style="stop-color:#e5e5e5;stop-opacity:1"
         offset="0.23475818"
         id="stop1094" />
      <stop
         style="stop-color:#e6e6e6;stop-opacity:1"
         offset="0.82042468"
         id="stop1096" />
      <stop
         style="stop-color:#8f8f8f;stop-opacity:1"
         offset="1"
         id="stop1088" />
    </linearGradient>
    <radialGradient
       inkscape:collect="always"
       xlink:href="#linearGradient1138"
       id="radialGradient1140-9"
       cx="-4512.8589"
       cy="-1934.0392"
       fx="-4512.8589"
       fy="-1934.0392"
       r="532.46625"
       gradientUnits="userSpaceOnUse"
       gradientTransform="matrix(0.07526166,0,0,0.07526166,449.25846,301.28515)" />
    <linearGradient
       inkscape:collect="always"
       id="linearGradient1138">
      <stop
         style="stop-color:#d0f6ff;stop-opacity:1"
         offset="0"
         id="stop1134" />
      <stop
         style="stop-color:#92e9ff;stop-opacity:1;"
         offset="0.54544556"
         id="stop1142" />
      <stop
         style="stop-color:#0089ab;stop-opacity:1"
         offset="1"
         id="stop1136" />
    </linearGradient>
    <radialGradient
       inkscape:collect="always"
       xlink:href="#linearGradient1154"
       id="radialGradient1156-2"
       cx="-4512.8589"
       cy="-1401.0494"
       fx="-4512.8589"
       fy="-1401.0494"
       r="532.46625"
       gradientUnits="userSpaceOnUse"
       gradientTransform="matrix(0.12353056,0,0,0.12353056,667.08927,368.91228)" />
    <linearGradient
       inkscape:collect="always"
       id="linearGradient1154">
      <stop
         style="stop-color:#5fd35f;stop-opacity:1;"
         offset="0"
         id="stop1150" />
      <stop
         style="stop-color:#5fd35f;stop-opacity:0;"
         offset="1"
         id="stop1152" />
    </linearGradient>
    <radialGradient
       inkscape:collect="always"
       xlink:href="#linearGradient1164"
       id="radialGradient1166-8"
       cx="-4522.4336"
       cy="-2569.1587"
       fx="-4522.4336"
       fy="-2569.1587"
       r="532.46625"
       gradientUnits="userSpaceOnUse"
       gradientTransform="matrix(0.12668833,0,0,0.12668833,681.83232,433.40863)" />
    <linearGradient
       inkscape:collect="always"
       id="linearGradient1164">
      <stop
         style="stop-color:#0044aa;stop-opacity:1;"
         offset="0"
         id="stop1160" />
      <stop
         style="stop-color:#0044aa;stop-opacity:0;"
         offset="1"
         id="stop1162" />
    </linearGradient>
    <linearGradient
       inkscape:collect="always"
       xlink:href="#linearGradient1174"
       id="linearGradient1286"
       gradientUnits="userSpaceOnUse"
       gradientTransform="matrix(0.07526166,0,0,0.07526166,449.25846,301.28515)"
       x1="-4508.5767"
       y1="-2446.3262"
       x2="-4508.5767"
       y2="-2040.1074" />
    <linearGradient
       inkscape:collect="always"
       id="linearGradient1174">
      <stop
         style="stop-color:#ffffff;stop-opacity:1;"
         offset="0"
         id="stop1170" />
      <stop
         style="stop-color:#ffffff;stop-opacity:0;"
         offset="1"
         id="stop1172" />
    </linearGradient>
    <filter
       inkscape:collect="always"
       style="color-interpolation-filters:sRGB"
       id="filter1203"
       x="-0.039099373"
       width="1.0781987"
       y="-0.3421087"
       height="1.6842175">
      <feGaussianBlur
         inkscape:collect="always"
         stdDeviation="2.3012252"
         id="feGaussianBlur1205" />
    </filter>
  </defs>
  <sodipodi:namedview
     id="base"
     pagecolor="#ffffff"
     bordercolor="#666666"
     borderopacity="1.0"
     inkscape:pageopacity="0.0"
     inkscape:pageshadow="2"
     inkscape:zoom="0.7"
     inkscape:cx="280.14891"
     inkscape:cy="293.73585"
     inkscape:document-units="mm"
     inkscape:current-layer="layer1"
     inkscape:document-rotation="0"
     showgrid="false"
     inkscape:window-width="2560"
     inkscape:window-height="1377"
     inkscape:window-x="2552"
     inkscape:window-y="-8"
     inkscape:window-maximized="1" />
  <metadata
     id="metadata1348">
    <rdf:RDF>
      <cc:Work
         rdf:about="">
        <dc:format>image/svg+xml</dc:format>
        <dc:type
           rdf:resource="http://purl.org/dc/dcmitype/StillImage" />
        <dc:title />
      </cc:Work>
    </rdf:RDF>
  </metadata>
  <g
     inkscape:label="Layer 1"
     inkscape:groupmode="layer"
     id="layer1"
     transform="translate(-38.986122,-85.099228)">
    <ellipse
       style="opacity:0.934641;fill:#000000;fill-opacity:1;fill-rule:evenodd;stroke-width:0.228085;filter:url(#filter1203)"
       id="circle865"
       cx="109.61309"
       cy="219.60417"
       rx="70.626968"
       ry="8.071909"
       transform="matrix(0.86881004,0,0,0.86881004,14.380142,31.228909)" />
    <circle
       style="fill:url(#radialGradient1092-5);fill-opacity:1;fill-rule:evenodd;stroke-width:0.674675"
       id="path1084-9"
       cx="109.61309"
       cy="155.7262"
       r="70.626968" />
    <path
       id="circle1098-4"
       style="opacity:0.509804;fill:#ffffff;fill-opacity:1;fill-rule:evenodd;stroke-width:0.615978;stroke-miterlimit:4;stroke-dasharray:none"
       d="m 94.727272,92.977187 a 64.490182,64.490182 0 0 0 -29.99404,16.437353 l 4.9942,4.99411 c 7.12154,-6.37871 15.72444,-10.90093 24.99984,-13.2484 z m 0,10.287463 c -8.73631,2.29417 -16.83766,6.57878 -23.56615,12.57904 l 4.68985,4.68841 a 48.771368,48.771368 0 0 1 18.8763,-11.24936 z m -31.4264,7.5809 a 64.490182,64.490182 0 0 0 -16.436,29.99538 h 6.2513 c 2.66545,-9.3847 7.82674,-18.03151 15.09199,-25.02493 0.009,-0.009 0.0179,-0.0179 0.0358,-0.0269 z m 6.37253,6.37252 c -0.0179,0.0179 -0.0448,0.0358 -0.0627,0.0538 -6.86619,6.60933 -11.76587,14.74212 -14.3763,23.56624 h 7.93389 a 48.771368,48.771368 0 0 1 11.24936,-18.87774 z" />
    <circle
       style="fill:#ffffff;fill-opacity:1;fill-rule:evenodd;stroke-width:0.418379"
       id="circle1128-6"
       cx="109.61309"
       cy="155.7262"
       r="43.797421" />
    <circle
       style="fill:#000080;fill-opacity:1;fill-rule:evenodd;stroke-width:0.393141"
       id="circle1130-2"
       cx="109.61309"
       cy="155.7262"
       r="41.155193" />
    <circle
       style="fill:url(#radialGradient1140-9);fill-opacity:1;fill-rule:evenodd;stroke-width:0.382815"
       id="circle1132-7"
       cx="109.61309"
       cy="155.7262"
       r="40.074291" />
    <circle
       style="fill:url(#radialGradient1156-2);fill-opacity:1;fill-rule:evenodd;stroke-width:0.382815"
       id="circle1148-0"
       cx="109.61309"
       cy="155.7262"
       r="40.074291" />
    <circle
       style="fill:url(#radialGradient1166-8);fill-opacity:1;fill-rule:evenodd;stroke-width:0.382815"
       id="circle1158-5"
       cx="109.61309"
       cy="155.7262"
       r="40.074291" />
    <path
       sodipodi:type="star"
       style="opacity:0.519608;fill:#ffffff;fill-opacity:1;fill-rule:evenodd;stroke:none;stroke-width:0.687139;stroke-linecap:butt;stroke-linejoin:round;stroke-miterlimit:4;stroke-dasharray:none;stroke-dashoffset:10.0157;stroke-opacity:1"
       id="path1144-1"
       sodipodi:sides="40"
       sodipodi:cx="109.61309"
       sodipodi:cy="155.7262"
       sodipodi:r1="37.405197"
       sodipodi:r2="12.362405"
       sodipodi:arg1="0.23837083"
       sodipodi:arg2="0.31691065"
       inkscape:flatsided="false"
       inkscape:rounded="0"
       inkscape:randomized="0"
       d="m 145.96062,164.55831 -24.60074,-4.97959 22.77159,10.55685 -23.51888,-8.76667 20.83978,13.98913 -21.85791,-12.3379 18.39482,17.07696 -19.65873,-15.60534 15.49692,19.74431 -16.97549,-18.48851 12.21745,21.92547 -13.87425,-20.91644 8.63712,23.56677 -10.43138,-22.82934 4.84414,24.62776 -6.73167,-24.1801 0.93187,25.08235 -2.86618,-24.93547 -3.00335,24.91932 1.06987,-25.07684 -6.86462,24.14269 4.97958,-24.60073 -10.556846,22.77159 8.766676,-23.51888 -13.989137,20.83978 12.337907,-21.85792 -17.076968,18.39483 15.605338,-19.65874 -19.744305,15.49693 18.488515,-16.97549 -21.925476,12.21744 20.916443,-13.87425 -23.566766,8.63713 22.829338,-10.43138 -24.627765,4.84413 24.180099,-6.73166 -25.082345,0.93186 24.935464,-2.86618 -24.919315,-3.00335 25.076838,1.06987 -24.14269,-6.86461 24.600735,4.97958 -22.771591,-10.55685 23.518882,8.76668 -20.83978,-13.98914 21.857915,12.33791 -18.394824,-17.07697 19.658728,15.60534 -15.496922,-19.74431 16.975492,18.48852 -12.217447,-21.92548 13.874247,20.91644 -8.637123,-23.56676 10.431383,22.82933 -4.84413,-24.62776 6.73166,24.1801 -0.93187,-25.08235 2.86618,24.93547 3.00336,-24.91932 -1.06988,25.07684 6.86462,-24.14269 -4.97958,24.60074 10.55685,-22.77159 -8.76668,23.51888 13.98914,-20.83978 -12.33791,21.85791 17.07697,-18.39482 -15.60534,19.65873 19.74431,-15.49693 -18.48852,16.97549 21.92548,-12.21744 -20.91645,13.87425 23.56677,-8.63713 -22.82934,10.43139 24.62777,-4.84414 -24.1801,6.73166 25.08234,-0.93186 -24.93546,2.86618 24.91931,3.00335 -25.07683,-1.06987 z" />
    <circle
       style="fill:#000000;fill-opacity:1;fill-rule:evenodd;stroke-width:0.0883406"
       id="circle1146-0"
       cx="109.61309"
       cy="155.7262"
       r="9.2477636" />
    <circle
       style="opacity:0.699346;fill:url(#linearGradient1286);fill-opacity:1;fill-rule:evenodd;stroke-width:0.215958"
       id="circle1168-0"
       cx="109.61309"
       cy="139.42072"
       r="22.607243" />
    <circle
       style="opacity:0.722222;fill:#ffffff;fill-opacity:1;fill-rule:evenodd;stroke-width:0.0338487"
       id="circle1178-1"
       cx="115.89766"
       cy="149.61168"
       r="3.543381" />
    <circle
       style="opacity:0.888889;fill:#ffffff;fill-opacity:1;fill-rule:evenodd;stroke-width:0.0160012"
       id="circle1180-4"
       cx="104.00825"
       cy="162.35022"
       r="1.6750497" />
  </g>
</svg>
