<?xml version="1.0" encoding="UTF-8" standalone="no"?>
<svg
   xmlns:dc="http://purl.org/dc/elements/1.1/"
   xmlns:cc="http://creativecommons.org/ns#"
   xmlns:rdf="http://www.w3.org/1999/02/22-rdf-syntax-ns#"
   xmlns:svg="http://www.w3.org/2000/svg"
   xmlns="http://www.w3.org/2000/svg"
   xmlns:sodipodi="http://sodipodi.sourceforge.net/DTD/sodipodi-0.dtd"
   xmlns:inkscape="http://www.inkscape.org/namespaces/inkscape"
   width="456.42981mm"
   height="303.05984mm"
   viewBox="0 0 456.42981 303.05985"
   version="1.1"
   id="svg8"
   sodipodi:docname="gears.svg"
   inkscape:version="1.0.2 (e86c870879, 2021-01-15, custom)"
   inkscape:export-filename="C:\Users\anxol\bitmap.png"
   inkscape:export-xdpi="96"
   inkscape:export-ydpi="96">
  <defs
     id="defs2" />
  <sodipodi:namedview
     id="base"
     pagecolor="#ffffff"
     bordercolor="#666666"
     borderopacity="1.0"
     inkscape:pageopacity="0.0"
     inkscape:pageshadow="2"
     inkscape:zoom="0.7"
     inkscape:cx="971.6217"
     inkscape:cy="308.1068"
     inkscape:document-units="mm"
     inkscape:current-layer="layer1"
     inkscape:document-rotation="0"
     showgrid="false"
     inkscape:window-width="2560"
     inkscape:window-height="1377"
     inkscape:window-x="2552"
     inkscape:window-y="-8"
     inkscape:window-maximized="1" />
  <metadata
     id="metadata5">
    <rdf:RDF>
      <cc:Work
         rdf:about="">
        <dc:format>image/svg+xml</dc:format>
        <dc:type
           rdf:resource="http://purl.org/dc/dcmitype/StillImage" />
        <dc:title></dc:title>
      </cc:Work>
    </rdf:RDF>
  </metadata>
  <g
     inkscape:label="Layer 1"
     inkscape:groupmode="layer"
     id="layer1"
     transform="translate(456.10367,51.010168)">
    <g
       id="g1848">
      <path
         id="path1473"
         style="fill:#4d4d4d;stroke:#000000;stroke-width:1.165;stroke-miterlimit:4;stroke-dasharray:none;stroke-opacity:1"
         d="m -326.98138,26.856453 -2.4908,8.590174 -0.0481,1.287259 0.57309,7.119463 -11.4794,1.818492 -1.6552,-6.948413 -0.44338,-1.209228 -5.02295,-7.400065 -7.83156,2.544548 0.28577,8.93899 0.35243,1.2392 2.74505,6.593911 -10.35595,5.276681 -3.72123,-6.096267 -0.7953,-1.013375 -7.06416,-5.485972 -6.66161,4.840534 3.03392,8.41344 0.7183,1.0697 4.6483,5.422408 -8.21862,8.218619 -5.42293,-4.648295 -1.0697,-0.717785 -8.41344,-3.03444 -4.84001,6.662126 5.48545,7.063653 1.01338,0.795816 6.09678,3.720703 -5.27668,10.356474 -6.59391,-2.745568 -1.2392,-0.351917 -8.93899,-0.285771 -2.54507,7.831047 7.40007,5.023464 1.20974,0.443381 6.9479,1.65468 -1.81798,11.47992 -7.11946,-0.57309 -1.28726,0.0475 -8.59017,2.49081 v 8.23464 l 8.59017,2.49028 1.28726,0.0481 7.11946,-0.57309 1.81798,11.4794 -6.9479,1.6552 -1.20974,0.44338 -7.40007,5.02295 2.54507,7.83157 8.93899,-0.28578 1.2392,-0.35243 6.59391,-2.74505 5.27668,10.35596 -6.09678,3.72122 -1.01338,0.7953 -5.48545,7.06417 4.84001,6.6616 8.41344,-3.03392 1.0697,-0.71778 5.42293,-4.64882 8.21862,8.21862 -4.6483,5.42293 -0.7183,1.0697 -3.03392,8.41344 6.66161,4.84001 7.06416,-5.48545 0.7953,-1.01337 3.72123,-6.09679 10.35595,5.2772 -2.74505,6.59339 -0.35243,1.2392 -0.28577,8.93951 7.83156,2.54455 5.02295,-7.40007 0.44338,-1.20974 1.6552,-6.9479 11.4794,1.81798 -0.57309,7.11946 0.0481,1.28778 2.4908,8.58965 h 8.23413 l 2.4908,-8.58965 0.0475,-1.28778 -0.57309,-7.11946 11.47992,-1.81798 1.65468,6.9479 0.4439,1.20974 5.02295,7.40007 7.83156,-2.54455 -0.28577,-8.93951 -0.35243,-1.2392 -2.74505,-6.59339 10.35595,-5.2772 3.72122,6.09679 0.7953,1.01337 7.06417,5.48545 6.66161,-4.84001 -3.03444,-8.41344 -0.71779,-1.0697 -4.64829,-5.42293 8.21862,-8.21862 5.42292,4.64882 1.0697,0.71778 8.41346,3.03392 4.83999,-6.6616 -5.48545,-7.06417 -1.01338,-0.7953 -6.09677,-3.72122 5.27667,-10.35596 6.59392,2.74505 1.2392,0.35243 8.93898,0.28578 2.54455,-7.83157 -7.40005,-5.02295 -1.20923,-0.44338 -6.9479,-1.6552 1.81797,-11.4794 7.11947,0.57309 1.28725,-0.0481 8.59017,-2.49028 v -8.23464 l -8.59017,-2.49081 -1.28725,-0.0475 -7.11947,0.57309 -1.81797,-11.47992 6.9479,-1.65468 1.20923,-0.443381 7.40005,-5.023464 -2.54455,-7.831047 -8.93898,0.285771 -1.2392,0.351917 -6.59392,2.745568 -5.27667,-10.356474 6.09677,-3.720703 1.01338,-0.795816 5.48545,-7.063653 -4.83999,-6.662126 -8.41346,3.03444 -1.0697,0.717785 -5.42292,4.648295 -8.21862,-8.218619 4.64829,-5.422408 0.71779,-1.0697 3.03444,-8.41344 -6.66161,-4.840534 -7.06417,5.485972 -0.7953,1.013375 -3.72122,6.096267 -10.35595,-5.276681 2.74505,-6.593911 0.35243,-1.2392 0.28577,-8.93899 -7.83156,-2.544548 -5.02295,7.400065 -0.4439,1.209228 -1.65468,6.948413 -11.47992,-1.818492 0.57309,-7.119463 -0.0475,-1.287259 -2.4908,-8.590174 z m 4.11706,76.013447 a 16.536459,16.536459 0 0 1 16.53646,16.53646 16.536459,16.536459 0 0 1 -16.53646,16.53646 16.536459,16.536459 0 0 1 -16.53645,-16.53646 16.536459,16.536459 0 0 1 16.53645,-16.53646 z" />
      <path
         id="path1703"
         style="fill:#666666;stroke:#000000;stroke-width:1.165;stroke-miterlimit:4;stroke-dasharray:none;stroke-opacity:1"
         d="m -330.58255,-17.3746 -8.67132,0.91209 -1.34874,8.7126471 0.0801,1.931146 1.02835,6.4207981 -11.6582,2.478401 -1.67172,-6.2843691 -0.71263,-1.796791 -4.77594,-7.4109181 -8.29252,2.6938951 0.4925,8.803079 0.47956,1.8717201 2.34145,6.06733 -10.88874,4.8477658 -2.94195,-5.7991288 -1.07022,-1.608688 -6.21255,-6.2569821 -7.55094,4.3599401 2.31201,8.5080078 0.85833,1.732194 3.55122,5.446696 -9.64282,7.005774 -4.08297,-5.060673 -1.38182,-1.351339 -7.37735,-4.827612 -6.4797,5.833752 4.03077,7.841899 1.19941,1.515153 4.60592,4.5899 -7.97523,8.85734 -5.04621,-4.101041 -1.63192,-1.034562 -8.21966,-3.188953 -5.1263,7.05435 5.57329,6.832141 1.48881,1.232483 5.4596,3.532084 -5.95982,10.322369 -5.78879,-2.962611 -1.81129,-0.672828 -8.70384,-1.409732 -3.54605,7.965404 6.87091,5.524212 1.71204,0.896585 6.07507,2.319239 -3.68297,11.335742 -6.27766,-1.693955 -1.91201,-0.281636 -8.80618,0.430464 -1.81282,8.528682 7.86979,3.97495 1.86087,0.5209 6.4239,1.00562 -1.24487,11.854056 -6.49367,-0.35192 -1.92804,0.12247 -8.52506,2.25155 v 8.71936 l 8.52506,2.25206 1.92804,0.12247 6.49367,-0.35191 1.24487,11.85353 -6.4239,1.00563 -1.86087,0.5209 -7.86979,3.97495 1.81282,8.52919 8.80618,0.42995 1.91201,-0.28112 6.27766,-1.69447 3.68297,11.33575 -6.07507,2.31975 -1.71204,0.89607 -6.87091,5.5242 3.54605,7.96593 8.70384,-1.41025 1.81129,-0.67231 5.78879,-2.96261 5.95982,10.32236 -5.4596,3.53157 -1.48881,1.23248 -5.57329,6.83266 5.1263,7.05383 8.21966,-3.18843 1.63192,-1.03456 5.04621,-4.10156 7.97523,8.85786 -4.60592,4.58989 -1.19941,1.51516 -4.03077,7.84138 6.4797,5.83427 7.37735,-4.82813 1.38182,-1.35082 4.08297,-5.06119 9.64282,7.00577 -3.55122,5.44722 -0.85833,1.73219 -2.31201,8.50801 7.55094,4.35994 6.21255,-6.25699 1.07022,-1.6092 2.94195,-5.79913 10.88874,4.84828 -2.34145,6.06682 -0.47956,1.87223 -0.4925,8.80257 8.29252,2.69441 4.77594,-7.41092 0.71263,-1.79731 1.67172,-6.28385 11.6582,2.47789 -1.02835,6.42079 -0.0801,1.93115 1.34874,8.71316 8.67132,0.91209 3.13055,-8.24291 0.32348,-1.90531 0.32866,-6.49417 h 11.91919 l 0.32867,6.49417 0.32348,1.90531 3.13004,8.24291 8.67182,-0.91209 1.34874,-8.71316 -0.0801,-1.93115 -1.02888,-6.42079 11.65873,-2.47789 1.67172,6.28385 0.71263,1.79731 4.77594,7.41092 8.29251,-2.69441 -0.49249,-8.80257 -0.47953,-1.87223 -2.34148,-6.06682 10.88874,-4.84828 2.94195,5.79913 1.07022,1.6092 6.21254,6.25699 7.55095,-4.35994 -2.31198,-8.50801 -0.85837,-1.73219 -3.55121,-5.44722 9.64282,-7.00577 4.08297,5.06119 1.38131,1.35082 7.37786,4.82813 6.47969,-5.83427 -4.03076,-7.84138 -1.19941,-1.51516 -4.60642,-4.58989 7.97573,-8.85786 5.04621,4.10156 1.63192,1.03456 8.21965,3.18843 5.12631,-7.05383 -5.57329,-6.83266 -1.48881,-1.23248 -5.4596,-3.53157 5.95932,-10.32236 5.78932,2.96261 1.81073,0.67231 8.70436,1.41025 3.54553,-7.96593 -6.87089,-5.5242 -1.71204,-0.89607 -6.07457,-2.31975 3.68298,-11.33575 6.27766,1.69447 1.91201,0.28112 8.80618,-0.42995 1.81282,-8.52919 -7.86979,-3.97495 -1.86087,-0.5209 -6.42443,-1.00563 1.2454,-11.85353 6.49367,0.35191 1.92804,-0.12247 8.52506,-2.25206 v -8.71936 l -8.52506,-2.25155 -1.92804,-0.12247 -6.49367,0.35192 -1.2454,-11.854056 6.42443,-1.00562 1.86087,-0.5209 7.86979,-3.97495 -1.81282,-8.528682 -8.80618,-0.430464 -1.91201,0.281636 -6.27766,1.693955 -3.68298,-11.335742 6.07457,-2.319239 1.71204,-0.896585 6.87089,-5.524212 -3.54553,-7.965404 -8.70436,1.409732 -1.81073,0.672828 -5.78932,2.962611 -5.95932,-10.322369 5.4596,-3.532084 1.48881,-1.232483 5.57329,-6.832141 -5.12631,-7.05435 -8.21965,3.188953 -1.63192,1.034562 -5.04621,4.101041 -7.97573,-8.85734 4.60642,-4.5899 1.19941,-1.515153 4.03076,-7.841899 -6.47969,-5.833752 -7.37786,4.827612 -1.38131,1.351339 -4.08297,5.060673 -9.64282,-7.005774 3.55121,-5.446696 0.85837,-1.732194 2.31198,-8.5080078 -7.55095,-4.3599401 -6.21254,6.2569821 -1.07022,1.608688 -2.94195,5.7991288 -10.88874,-4.8477658 2.34148,-6.06733 0.47953,-1.8717201 0.49249,-8.803079 -8.29251,-2.6938951 -4.77594,7.4109181 -0.71263,1.796791 -1.67172,6.2843691 -11.65873,-2.478401 1.02888,-6.4207981 0.0801,-1.931146 -1.34874,-8.7126471 -8.67182,-0.91209 -3.13004,8.2429081 -0.32348,1.904794 -0.32867,6.494177 h -11.91919 l -0.32866,-6.494177 -0.32348,-1.904794 z m 9.47436,28.565698 a 105.83334,105.83334 0 0 1 5e-4,0 105.83334,105.83334 0 0 1 0.26718,0 105.83334,105.83334 0 0 1 88.22303,47.374885 l -68.48266,39.538671 a 28.348215,28.348215 0 0 0 -19.02052,-7.32875 28.348215,28.348215 0 0 0 -5.96191,0.63459 l -40.35362,-69.893928 a 105.83334,105.83334 0 0 1 45.328,-10.325468 z m -60.35032,19.079972 40.31845,69.83294 a 28.348215,28.348215 0 0 0 -7.32875,19.02003 28.348215,28.348215 0 0 0 0.63458,5.96243 l -67.74418,39.11233 a 105.83334,105.83334 0 0 1 -11.09544,-47.17437 105.83334,105.83334 0 0 1 45.21534,-86.75336 z m 157.22295,43.532227 a 105.83334,105.83334 0 0 1 9.22837,43.221133 105.83334,105.83334 0 0 1 -45.91917,87.24066 l -38.17493,-66.12051 a 28.348215,28.348215 0 0 0 7.32877,-19.02054 28.348215,28.348215 0 0 0 -0.6346,-5.96191 z m -95.8851,31.841973 a 13.249977,13.478872 0 0 1 13.24983,13.47929 13.249977,13.478872 0 0 1 -13.24983,13.47876 13.249977,13.478872 0 0 1 -13.24983,-13.47876 13.249977,13.478872 0 0 1 13.24983,-13.47929 z m -19.02055,34.49867 a 28.348215,28.348215 0 0 0 19.02055,7.32875 28.348215,28.348215 0 0 0 5.96191,-0.63458 l 38.13979,66.05953 a 105.83334,105.83334 0 0 1 -44.82155,9.96012 105.83334,105.83334 0 0 1 -85.73379,-43.78131 z" />
    </g>
    <g
       id="g1844">
      <path
         id="path1243"
         style="fill:#999999;stroke:#000000;stroke-width:1.165;stroke-miterlimit:4;stroke-dasharray:none;stroke-opacity:1"
         d="m -96.183904,44.719644 -3.210129,8.934855 0.0413,0.513664 1.55702,7.755599 -9.025287,3.738273 -4.38319,-6.585128 -0.33382,-0.392224 -8.58761,-4.047815 -4.75475,4.754231 4.04783,8.588107 0.39273,0.333829 6.58513,4.382679 -3.7388,9.025805 -7.75507,-1.557011 -0.51366,-0.04186 -8.93485,3.210657 v 6.723622 l 8.93485,3.21014 0.51366,-0.0414 7.75507,-1.557 3.7388,9.025283 -6.58513,4.3832 -0.39273,0.33383 -4.04783,8.5881 4.75475,4.75423 8.58761,-4.04781 0.33382,-0.39274 4.38319,-6.58513 9.025287,3.73879 -1.55702,7.7556 -0.0413,0.51366 3.210129,8.93434 h 6.723622 l 3.210666,-8.93434 -0.04186,-0.51366 -1.55702,-7.7556 9.025811,-3.73879 4.38269,6.58513 0.333825,0.39274 8.58811,4.04781 4.754219,-4.75423 -4.047808,-8.5881 -0.392218,-0.33383 -6.585135,-4.3832 3.738774,-9.025283 7.755096,1.557 0.513662,0.0414 8.934847,-3.21014 v -6.723622 l -8.934847,-3.210657 -0.513662,0.04186 -7.755096,1.557011 -3.738774,-9.025805 6.585135,-4.382679 0.392218,-0.333829 4.047808,-8.588107 -4.754219,-4.754231 -8.58811,4.047815 -0.333825,0.392224 -4.38269,6.585128 -9.025811,-3.738273 1.55702,-7.755599 0.04186,-0.513664 -3.210666,-8.934855 z m 3.36206,25.438757 a 16.536459,16.536459 0 0 1 13.738203,7.331852 l -8.963792,5.174878 a 6.2474249,6.2474249 0 0 0 -6.894171,-1.847433 l -5.174876,-8.963277 a 16.536459,16.536459 0 0 1 7.294636,-1.69602 z m -9.204076,2.798278 5.174876,8.963794 a 6.2474249,6.2474249 0 0 0 -1.847429,6.894154 l -8.963287,5.17487 a 16.536459,16.536459 0 0 1 -1.69653,-7.294639 16.536459,16.536459 0 0 1 7.33237,-13.738179 z m 24.044533,6.443018 a 16.536459,16.536459 0 0 1 1.696006,7.295161 16.536459,16.536459 0 0 1 -7.331842,13.737662 l -5.17488,-8.963793 a 6.2474249,6.2474249 0 0 0 1.847427,-6.894153 z m -14.840457,5.190382 a 2.1047475,2.1047475 0 0 1 2.104791,2.104779 2.1047475,2.1047475 0 0 1 -2.104791,2.104779 2.1047475,2.1047475 0 0 1 -2.10476,-2.104779 2.1047475,2.1047475 0 0 1 2.10476,-2.104779 z m -4.77385,6.133988 a 6.2474249,6.2474249 0 0 0 6.894146,1.84743 l 5.17488,8.963283 a 16.536459,16.536459 0 0 1 -7.295176,1.69653 16.536459,16.536459 0 0 1 -13.737636,-7.332363 z" />
      <path
         id="path1473-4"
         style="fill:#808080;stroke:#000000;stroke-width:1.165;stroke-miterlimit:4;stroke-dasharray:none;stroke-opacity:1"
         d="m -76.644914,-4.5235812 -4.305187,7.8396812 -0.327774,1.245759 -0.994202,7.072957 -11.599585,-0.730155 -0.09916,-7.142149 -0.168848,-1.27684 -3.287186,-8.317764 -8.198074,0.7743715 -1.67164,8.7859445 0.0736,1.286245 1.2401,7.034 -11.25782,2.889837 -2.30132,-6.761346 -0.55502,-1.162495 -5.6969,-6.895192 -7.55729,3.270317 1.12499,8.872716 0.46757,1.200659 3.35312,6.306017 -9.8139,6.227261 -4.27799,-5.719581 -0.88731,-0.933903 -7.54858,-4.797149 -6.17707,5.445488 3.81196,8.09038 0.81532,0.997762 5.13801,4.96138 -7.40934,8.955536 -5.83592,-4.11821 -1.13255,-0.613834 -8.66125,-2.229393 -4.19248,7.087012 6.12561,6.517122 1.08386,0.696673 6.4194,3.130847 -4.27911,10.806608 -6.82286,-2.112761 -1.2666,-0.234484 -8.92669,0.556391 -1.79681,8.036215 7.83979,4.304674 1.24575,0.327782 7.07296,0.994197 -0.73066,11.599478 -7.14162,0.09927 -1.27735,0.168729 -8.31776,3.287205 0.77487,8.19819 8.78594,1.671623 1.28625,-0.0735 7.03398,-1.240113 2.88985,11.257803 -6.76186,2.30122 -1.1625,0.55502 -6.89468,5.69701 3.26982,7.55719 8.8727,-1.12499 1.20056,-0.46707 6.30663,-3.35351 6.22727,9.8139 -5.71959,4.27799 -0.93439,0.88719 -4.79665,7.5487 5.44497,6.17696 8.09088,-3.81186 0.99727,-0.81542 4.96187,-5.13789 8.95494,7.40973 -4.1176,5.83554 -0.61436,1.13243 -2.22948,8.66175 7.08762,4.19209 6.51661,-6.12573 0.69667,-1.08385 3.13137,-6.41931 10.8061,4.279 -2.11276,6.82286 -0.23411,1.26723 0.55652,8.92618 8.03571,1.7967 4.30505,-7.83918 0.32739,-1.24637 0.99421,-7.07296 11.599987,0.73077 0.09876,7.14153 0.169226,1.27746 3.287212,8.31777 8.198074,-0.77438 1.671728,-8.78645 -0.07354,-1.28624 -1.240214,-7.03349 11.257904,-2.89035 2.301234,6.76185 0.555,1.16249 5.697032,6.8947 7.557179,-3.26981 -1.125504,-8.87283 -0.467055,-1.20055 -3.353005,-6.30652 9.8139,-6.22726 4.277873,5.72008 0.887312,0.93391 7.548692,4.79664 6.176972,-5.44498 -3.811879,-8.09089 -0.815399,-0.99726 -5.137906,-4.96188 7.409207,-8.95504 5.836054,4.11771 1.13244,0.61434 8.661248,2.22939 4.192099,-7.08762 -6.125746,-6.51662 -1.08334,-0.69656 -6.419319,-3.13136 4.279001,-10.8061 6.822858,2.11276 1.266745,0.23399 8.9265674,-0.55589 1.7968151,-8.03622 -7.8396839,-4.305173 -1.2458836,-0.32729 -7.072958,-0.9942 0.73077,-11.599978 7.1415396,-0.09876 1.276835,-0.168847 8.3178928,-3.287704 -0.7744861,-8.197574 -8.7859587,-1.671623 -1.2861306,0.07304 -7.034119,1.240603 -2.889712,-11.258299 6.761748,-2.300715 1.162584,-0.555524 6.8945969,-5.696503 -3.2697073,-7.557693 -8.8728196,1.125493 -1.200556,0.467076 -6.306521,3.352995 -6.227262,-9.8139 5.719479,-4.277478 0.933878,-0.887309 4.797163,-7.548584 -5.444866,-6.177466 -8.091017,3.812357 -0.997242,0.815424 -4.961782,5.137391 -8.955027,-7.409221 4.117711,-5.836048 0.614329,-1.13244 2.229396,-8.661236 -7.087623,-4.192096 -6.51663,6.125731 -0.697052,1.083234 -3.130963,6.419926 -10.806504,-4.279616 2.112759,-6.822859 0.234483,-1.266618 -0.556375,-8.9266768 z m -8.558776,38.7739052 -7.334185,32.801977 a 19.644311,19.644311 0 0 0 -18.176455,11.533586 l -34.33103,-7.676064 a 54.566139,52.985667 12.60345 0 1 59.84167,-36.659499 z m 7.824797,1.750076 a 54.566139,52.985667 12.60345 0 1 38.530561,58.653987 L -73.179387,86.978316 A 19.644311,19.644311 0 0 0 -84.712964,68.80187 Z m -12.4976,37.522025 A 13.497111,13.497111 0 0 1 -79.65,89.639597 13.497111,13.497111 0 0 1 -95.766799,99.866687 13.497111,13.497111 0 0 1 -105.99375,83.749409 13.497111,13.497111 0 0 1 -89.876493,73.522425 Z m -56.918437,5.212306 34.33103,7.676065 a 19.644311,19.644311 0 0 0 11.5336,18.176454 l -7.33396,32.80097 a 54.566139,52.985667 12.60345 0 1 -38.53067,-58.653489 z m 71.865974,16.068496 34.331055,7.676073 a 54.566139,52.985667 12.60345 0 1 -59.841559,36.65899 l 7.334068,-32.80147 a 19.644311,19.644311 0 0 0 18.176436,-11.533593 z" />
    </g>
    <path
       id="path1243-1"
       style="fill:#b3b3b3;stroke:#000000;stroke-width:1.165;stroke-miterlimit:4;stroke-dasharray:none;stroke-opacity:1"
       d="m -195.62575,-50.427668 -3.21013,8.934855 0.0413,0.513664 1.55702,7.755599 -9.02529,3.738273 -4.38319,-6.585128 -0.33382,-0.392224 -8.58761,-4.047815 -4.75475,4.754231 4.04783,8.588107 0.39273,0.333829 6.58513,4.382679 -3.7388,9.025805 -7.75507,-1.557011 -0.51366,-0.04186 -8.93485,3.210657 v 6.7236221 l 8.93485,3.21014 0.51366,-0.0414 7.75507,-1.557 3.7388,9.02528 -6.58513,4.3832 -0.39273,0.3338319 -4.04783,8.588096 4.75475,4.75423 8.58761,-4.04781 0.33382,-0.39274 4.38319,-6.585128 9.02529,3.738788 -1.55702,7.7556 -0.0413,0.51366 3.21013,8.93434 h 6.72362 l 3.21067,-8.93434 -0.0419,-0.51366 -1.55702,-7.7556 9.02581,-3.738788 4.38269,6.585128 0.33382,0.39274 8.58811,4.04781 4.75422,-4.75423 -4.04781,-8.588096 -0.39222,-0.3338319 -6.58513,-4.3832 3.73877,-9.02528 7.7551,1.557 0.51366,0.0414 8.93485,-3.21014 v -6.7236221 l -8.93485,-3.210657 -0.51366,0.04186 -7.7551,1.557011 -3.73877,-9.025805 6.58513,-4.382679 0.39222,-0.333829 4.04781,-8.588107 -4.75422,-4.754231 -8.58811,4.047815 -0.33382,0.392224 -4.38269,6.585128 -9.02581,-3.738273 1.55702,-7.755599 0.0419,-0.513664 -3.21067,-8.934855 z m 3.36206,25.438757 a 16.536459,16.536459 0 0 1 13.7382,7.331852 l -8.96379,5.174878 a 6.2474249,6.2474249 0 0 0 -6.89417,-1.847433 l -5.17488,-8.963277 a 16.536459,16.536459 0 0 1 7.29464,-1.69602 z m -9.20408,2.798278 5.17488,8.963794 a 6.2474249,6.2474249 0 0 0 -1.84743,6.8941541 l -8.96329,5.17487 a 16.536459,16.536459 0 0 1 -1.69653,-7.294639 16.536459,16.536459 0 0 1 7.33237,-13.7381791 z m 24.04453,6.443018 a 16.536459,16.536459 0 0 1 1.69601,7.2951611 16.536459,16.536459 0 0 1 -7.33184,13.737659 l -5.17488,-8.96379 a 6.2474249,6.2474249 0 0 0 1.84743,-6.8941531 z m -14.84045,5.190382 a 2.1047475,2.1047475 0 0 1 2.10479,2.1047791 2.1047475,2.1047475 0 0 1 -2.10479,2.104779 2.1047475,2.1047475 0 0 1 -2.10476,-2.104779 2.1047475,2.1047475 0 0 1 2.10476,-2.1047791 z m -4.77385,6.1339881 a 6.2474249,6.2474249 0 0 0 6.89414,1.84743 l 5.17488,8.96328 a 16.536459,16.536459 0 0 1 -7.29517,1.69653 16.536459,16.536459 0 0 1 -13.73764,-7.33235996 z" />
  </g>
</svg>
