<?xml version="1.0" encoding="UTF-8" standalone="no"?>
<svg
   xmlns:dc="http://purl.org/dc/elements/1.1/"
   xmlns:cc="http://creativecommons.org/ns#"
   xmlns:rdf="http://www.w3.org/1999/02/22-rdf-syntax-ns#"
   xmlns:svg="http://www.w3.org/2000/svg"
   xmlns="http://www.w3.org/2000/svg"
   xmlns:sodipodi="http://sodipodi.sourceforge.net/DTD/sodipodi-0.dtd"
   xmlns:inkscape="http://www.inkscape.org/namespaces/inkscape"
   width="89.410545mm"
   height="89.411072mm"
   viewBox="0 0 89.410545 89.411072"
   version="1.1"
   id="svg8"
   inkscape:version="1.0.2 (e86c870879, 2021-01-15, custom)"
   sodipodi:docname="play_button.svg"
   inkscape:export-filename="D:\Users\anxol\Documentos\TFG\presentación\media\play_button.png"
   inkscape:export-xdpi="96"
   inkscape:export-ydpi="96">
  <defs
     id="defs2">
    <rect
       x="58.345142"
       y="127.63664"
       width="62.277328"
       height="35.602226"
       id="rect3473" />
    <marker
       style="overflow:visible"
       id="Arrow2Lend"
       refX="0"
       refY="0"
       orient="auto"
       inkscape:stockid="Arrow2Lend"
       inkscape:isstock="true">
      <path
         transform="matrix(-1.1,0,0,-1.1,-1.1,0)"
         d="M 8.7185878,4.0337352 -2.2072895,0.01601326 8.7185884,-4.0017078 c -1.7454984,2.3720609 -1.7354408,5.6174519 -6e-7,8.035443 z"
         style="fill:#ff0000;fill-opacity:1;fill-rule:evenodd;stroke:#ff0000;stroke-width:0.625;stroke-linejoin:round;stroke-opacity:1"
         id="path876" />
    </marker>
    <marker
       style="overflow:visible"
       id="Arrow1Lend"
       refX="0"
       refY="0"
       orient="auto"
       inkscape:stockid="Arrow1Lend"
       inkscape:isstock="true">
      <path
         transform="matrix(-0.8,0,0,-0.8,-10,0)"
         style="fill:#000000;fill-opacity:1;fill-rule:evenodd;stroke:#000000;stroke-width:1pt;stroke-opacity:1"
         d="M 0,0 5,-5 -12.5,0 5,5 Z"
         id="path858" />
    </marker>
    <marker
       style="overflow:visible"
       id="Arrow2Lend-8"
       refX="0"
       refY="0"
       orient="auto"
       inkscape:stockid="Arrow2Lend"
       inkscape:isstock="true">
      <path
         transform="matrix(-1.1,0,0,-1.1,-1.1,0)"
         d="M 8.7185878,4.0337352 -2.2072895,0.01601326 8.7185884,-4.0017078 c -1.7454984,2.3720609 -1.7354408,5.6174519 -6e-7,8.035443 z"
         style="fill:#ffc900;fill-opacity:1;fill-rule:evenodd;stroke:#ffc900;stroke-width:0.625;stroke-linejoin:round;stroke-opacity:1"
         id="path876-7" />
    </marker>
    <marker
       style="overflow:visible"
       id="Arrow2Lend-8-4"
       refX="0"
       refY="0"
       orient="auto"
       inkscape:stockid="Arrow2Lend"
       inkscape:isstock="true">
      <path
         transform="matrix(-1.1,0,0,-1.1,-1.1,0)"
         d="M 8.7185878,4.0337352 -2.2072895,0.01601326 8.7185884,-4.0017078 c -1.7454984,2.3720609 -1.7354408,5.6174519 -6e-7,8.035443 z"
         style="fill:#00b0f6;fill-opacity:1;fill-rule:evenodd;stroke:#00b0f6;stroke-width:0.625;stroke-linejoin:round;stroke-opacity:1"
         id="path876-7-9" />
    </marker>
    <marker
       style="overflow:visible"
       id="Arrow2Lend-2"
       refX="0"
       refY="0"
       orient="auto"
       inkscape:stockid="Arrow2Lend"
       inkscape:isstock="true">
      <path
         transform="matrix(-1.1,0,0,-1.1,-1.1,0)"
         d="M 8.7185878,4.0337352 -2.2072895,0.01601326 8.7185884,-4.0017078 c -1.7454984,2.3720609 -1.7354408,5.6174519 -6e-7,8.035443 z"
         style="fill:#00bc00;fill-opacity:1;fill-rule:evenodd;stroke:#00bc00;stroke-width:0.625;stroke-linejoin:round;stroke-opacity:1"
         id="path876-74" />
    </marker>
    <marker
       style="overflow:visible"
       id="Arrow2Lend-25"
       refX="0"
       refY="0"
       orient="auto"
       inkscape:stockid="Arrow2Lend"
       inkscape:isstock="true">
      <path
         transform="matrix(-1.1,0,0,-1.1,-1.1,0)"
         d="M 8.7185878,4.0337352 -2.2072895,0.01601326 8.7185884,-4.0017078 c -1.7454984,2.3720609 -1.7354408,5.6174519 -6e-7,8.035443 z"
         style="fill:#ff0000;fill-opacity:1;fill-rule:evenodd;stroke:#ff0000;stroke-width:0.625;stroke-linejoin:round;stroke-opacity:1"
         id="path876-4" />
    </marker>
    <marker
       style="overflow:visible"
       id="Arrow2Lend-8-5"
       refX="0"
       refY="0"
       orient="auto"
       inkscape:stockid="Arrow2Lend"
       inkscape:isstock="true">
      <path
         transform="matrix(-1.1,0,0,-1.1,-1.1,0)"
         d="M 8.7185878,4.0337352 -2.2072895,0.01601326 8.7185884,-4.0017078 c -1.7454984,2.3720609 -1.7354408,5.6174519 -6e-7,8.035443 z"
         style="fill:#ffc900;fill-opacity:1;fill-rule:evenodd;stroke:#ffc900;stroke-width:0.625;stroke-linejoin:round;stroke-opacity:1"
         id="path876-7-98" />
    </marker>
    <marker
       style="overflow:visible"
       id="Arrow2Lend-8-4-5"
       refX="0"
       refY="0"
       orient="auto"
       inkscape:stockid="Arrow2Lend"
       inkscape:isstock="true">
      <path
         transform="matrix(-1.1,0,0,-1.1,-1.1,0)"
         d="M 8.7185878,4.0337352 -2.2072895,0.01601326 8.7185884,-4.0017078 c -1.7454984,2.3720609 -1.7354408,5.6174519 -6e-7,8.035443 z"
         style="fill:#00b0f6;fill-opacity:1;fill-rule:evenodd;stroke:#00b0f6;stroke-width:0.625;stroke-linejoin:round;stroke-opacity:1"
         id="path876-7-9-1" />
    </marker>
    <marker
       style="overflow:visible"
       id="Arrow2Lend-2-3"
       refX="0"
       refY="0"
       orient="auto"
       inkscape:stockid="Arrow2Lend"
       inkscape:isstock="true">
      <path
         transform="matrix(-1.1,0,0,-1.1,-1.1,0)"
         d="M 8.7185878,4.0337352 -2.2072895,0.01601326 8.7185884,-4.0017078 c -1.7454984,2.3720609 -1.7354408,5.6174519 -6e-7,8.035443 z"
         style="fill:#00bc00;fill-opacity:1;fill-rule:evenodd;stroke:#00bc00;stroke-width:0.625;stroke-linejoin:round;stroke-opacity:1"
         id="path876-74-1" />
    </marker>
    <marker
       style="overflow:visible"
       id="Arrow2Lend-25-1"
       refX="0"
       refY="0"
       orient="auto"
       inkscape:stockid="Arrow2Lend"
       inkscape:isstock="true">
      <path
         transform="matrix(-1.1,0,0,-1.1,-1.1,0)"
         d="M 8.7185878,4.0337352 -2.2072895,0.01601326 8.7185884,-4.0017078 c -1.7454984,2.3720609 -1.7354408,5.6174519 -6e-7,8.035443 z"
         style="fill:#ff0000;fill-opacity:1;fill-rule:evenodd;stroke:#ff0000;stroke-width:0.625;stroke-linejoin:round;stroke-opacity:1"
         id="path876-4-4" />
    </marker>
    <marker
       style="overflow:visible"
       id="Arrow2Lend-8-5-1"
       refX="0"
       refY="0"
       orient="auto"
       inkscape:stockid="Arrow2Lend"
       inkscape:isstock="true">
      <path
         transform="matrix(-1.1,0,0,-1.1,-1.1,0)"
         d="M 8.7185878,4.0337352 -2.2072895,0.01601326 8.7185884,-4.0017078 c -1.7454984,2.3720609 -1.7354408,5.6174519 -6e-7,8.035443 z"
         style="fill:#ffc900;fill-opacity:1;fill-rule:evenodd;stroke:#ffc900;stroke-width:0.625;stroke-linejoin:round;stroke-opacity:1"
         id="path876-7-98-8" />
    </marker>
    <marker
       style="overflow:visible"
       id="Arrow2Lend-2-3-4"
       refX="0"
       refY="0"
       orient="auto"
       inkscape:stockid="Arrow2Lend"
       inkscape:isstock="true">
      <path
         transform="matrix(-1.1,0,0,-1.1,-1.1,0)"
         d="M 8.7185878,4.0337352 -2.2072895,0.01601326 8.7185884,-4.0017078 c -1.7454984,2.3720609 -1.7354408,5.6174519 -6e-7,8.035443 z"
         style="fill:#00bc00;fill-opacity:1;fill-rule:evenodd;stroke:#00bc00;stroke-width:0.625;stroke-linejoin:round;stroke-opacity:1"
         id="path876-74-1-6" />
    </marker>
    <marker
       style="overflow:visible"
       id="Arrow2Lend-8-4-5-2"
       refX="0"
       refY="0"
       orient="auto"
       inkscape:stockid="Arrow2Lend"
       inkscape:isstock="true">
      <path
         transform="matrix(-1.1,0,0,-1.1,-1.1,0)"
         d="M 8.7185878,4.0337352 -2.2072895,0.01601326 8.7185884,-4.0017078 c -1.7454984,2.3720609 -1.7354408,5.6174519 -6e-7,8.035443 z"
         style="fill:#00b0f6;fill-opacity:1;fill-rule:evenodd;stroke:#00b0f6;stroke-width:0.625;stroke-linejoin:round;stroke-opacity:1"
         id="path876-7-9-1-8" />
    </marker>
    <filter
       inkscape:collect="always"
       style="color-interpolation-filters:sRGB"
       id="filter2133"
       x="-0.23207952"
       width="1.464159"
       y="-0.20127001"
       height="1.40254">
      <feGaussianBlur
         inkscape:collect="always"
         stdDeviation="2.347184"
         id="feGaussianBlur2135" />
    </filter>
    <filter
       inkscape:collect="always"
       style="color-interpolation-filters:sRGB"
       id="filter2421"
       x="-0.072087899"
       width="1.1441758"
       y="-0.072087415"
       height="1.1441748">
      <feGaussianBlur
         inkscape:collect="always"
         stdDeviation="2.347184"
         id="feGaussianBlur2423" />
    </filter>
  </defs>
  <sodipodi:namedview
     id="base"
     pagecolor="#ffffff"
     bordercolor="#666666"
     borderopacity="1.0"
     inkscape:pageopacity="0.0"
     inkscape:pageshadow="2"
     inkscape:zoom="1.7764515"
     inkscape:cx="209.70657"
     inkscape:cy="143.72353"
     inkscape:document-units="mm"
     inkscape:current-layer="layer1"
     inkscape:document-rotation="0"
     showgrid="false"
     inkscape:snap-smooth-nodes="false"
     inkscape:object-nodes="true"
     inkscape:window-width="2560"
     inkscape:window-height="1377"
     inkscape:window-x="2552"
     inkscape:window-y="-8"
     inkscape:window-maximized="1" />
  <metadata
     id="metadata5">
    <rdf:RDF>
      <cc:Work
         rdf:about="">
        <dc:format>image/svg+xml</dc:format>
        <dc:type
           rdf:resource="http://purl.org/dc/dcmitype/StillImage" />
        <dc:title />
      </cc:Work>
    </rdf:RDF>
  </metadata>
  <g
     inkscape:label="Layer 1"
     inkscape:groupmode="layer"
     id="layer1"
     transform="translate(-62.950365,-82.635791)">
    <path
       id="path1051"
       style="fill:#e6e6e6;fill-rule:evenodd;stroke-width:0.264583;filter:url(#filter2421)"
       d="m 107.65512,88.269032 a 39.072216,39.072216 0 0 0 -39.071514,39.072548 39.072216,39.072216 0 0 0 39.072034,39.07204 39.072216,39.072216 0 0 0 39.07203,-39.07204 39.072216,39.072216 0 0 0 -39.07203,-39.072548 39.072216,39.072216 0 0 1 -5.2e-4,0 z m -0.0692,2.949175 a 36.123366,36.123366 0 0 1 0.0698,0 36.123366,36.123366 0 0 1 36.12338,36.123373 36.123366,36.123366 0 0 1 -36.12338,36.12338 36.123366,36.123366 0 0 1 -36.123377,-36.12338 36.123366,36.123366 0 0 1 36.053617,-36.123373 z" />
    <path
       sodipodi:type="star"
       style="mix-blend-mode:normal;fill:#e6e6e6;fill-rule:evenodd;stroke:none;stroke-width:0.0736579;stroke-linejoin:round;stroke-dashoffset:10.0157;stroke-opacity:0.943775;filter:url(#filter2133)"
       id="path1059"
       sodipodi:sides="3"
       sodipodi:cx="107.66864"
       sodipodi:cy="127.28278"
       sodipodi:r1="16.159204"
       sodipodi:r2="8.0796022"
       sodipodi:arg1="-0.00724625"
       sodipodi:arg2="1.0399513"
       inkscape:flatsided="true"
       inkscape:rounded="0"
       inkscape:randomized="0"
       d="m 123.82742,127.16569 -24.136765,14.16955 -0.20281,-27.98782 z"
       inkscape:transform-center-x="-4.0227065"
       inkscape:transform-center-y="-0.019734379"
       transform="rotate(0.55503659,99.836311,178.19897)" />
  </g>
</svg>
