<?xml version="1.0" encoding="UTF-8" standalone="no"?>
<svg
   xmlns:dc="http://purl.org/dc/elements/1.1/"
   xmlns:cc="http://creativecommons.org/ns#"
   xmlns:rdf="http://www.w3.org/1999/02/22-rdf-syntax-ns#"
   xmlns:svg="http://www.w3.org/2000/svg"
   xmlns="http://www.w3.org/2000/svg"
   xmlns:sodipodi="http://sodipodi.sourceforge.net/DTD/sodipodi-0.dtd"
   xmlns:inkscape="http://www.inkscape.org/namespaces/inkscape"
   width="259.71252mm"
   height="148.18222mm"
   viewBox="0 0 259.71252 148.18222"
   version="1.1"
   id="svg8"
   sodipodi:docname="fin.svg"
   inkscape:version="1.0.2 (e86c870879, 2021-01-15, custom)">
  <defs
     id="defs2" />
  <sodipodi:namedview
     id="base"
     pagecolor="#ffffff"
     bordercolor="#666666"
     borderopacity="1.0"
     inkscape:pageopacity="0.0"
     inkscape:pageshadow="2"
     inkscape:zoom="0.70710678"
     inkscape:cx="729.34186"
     inkscape:cy="159.03308"
     inkscape:document-units="mm"
     inkscape:current-layer="layer1"
     inkscape:document-rotation="0"
     showgrid="false"
     inkscape:window-width="2560"
     inkscape:window-height="1377"
     inkscape:window-x="2552"
     inkscape:window-y="-8"
     inkscape:window-maximized="1" />
  <metadata
     id="metadata5">
    <rdf:RDF>
      <cc:Work
         rdf:about="">
        <dc:format>image/svg+xml</dc:format>
        <dc:type
           rdf:resource="http://purl.org/dc/dcmitype/StillImage" />
        <dc:title></dc:title>
      </cc:Work>
    </rdf:RDF>
  </metadata>
  <g
     inkscape:label="Layer 1"
     inkscape:groupmode="layer"
     id="layer1"
     transform="translate(278.01451,-84.925285)">
    <g
       id="g3374"
       transform="rotate(22.068826,-92.160644,176.86171)">
      <path
         style="opacity:1;fill:#000000;fill-opacity:1;fill-rule:evenodd;stroke:#000000;stroke-width:4.0252;stroke-linejoin:round;stroke-miterlimit:4;stroke-dasharray:none;stroke-dashoffset:10.0157;stroke-opacity:1"
         d="m 438.50586,646.91797 c -22.53807,0.002 -44.13688,4.52751 -64.50586,15.83984 V 880.625 c 20.38774,-11.20158 42.0059,-15.70406 64.50195,-15.71094 2.4282,-7.4e-4 4.8663,0.0514 7.31446,0.15235 39.17053,1.61593 80.85234,15.84261 123.41015,31.1582 42.55783,15.31559 85.99651,31.72346 128.63086,37.75781 26.83828,3.7986 53.34769,3.4906 79.14258,-3.76953 V 712.25 c -25.86874,7.22775 -52.44351,7.52146 -79.2832,3.72266 -42.78995,-6.05639 -86.28244,-22.49078 -128.83008,-37.80274 -42.54763,-15.31192 -84.14949,-29.49246 -123.10742,-31.09961 -2.43487,-0.10044 -4.85969,-0.15254 -7.27344,-0.15234 z"
         id="path2188"
         transform="matrix(0.26458333,0,0,0.26458333,-244.42835,-75.248824)" />
      <g
         id="g3368">
        <rect
           style="opacity:1;fill:#000000;fill-opacity:1;fill-rule:evenodd;stroke:#000000;stroke-width:1.18006;stroke-linejoin:round;stroke-miterlimit:4;stroke-dasharray:none;stroke-dashoffset:10.0157;stroke-opacity:1"
           id="rect3355"
           width="1.8693219"
           height="157.58763"
           x="-145.41666"
           y="100.16337" />
        <path
           id="path3350"
           style="opacity:1;fill:#ffffff;fill-opacity:1;fill-rule:evenodd;stroke:none;stroke-width:4.0252;stroke-linejoin:round;stroke-miterlimit:4;stroke-dasharray:none;stroke-dashoffset:10.0157;stroke-opacity:0"
           d="m 431.39844,647.83398 c -9.34008,0.41101 -18.51065,1.65839 -27.49024,3.9004 v 20.4707 c 8.97959,-2.24202 18.15016,-3.48941 27.49024,-3.90039 z m 29.9082,1.25586 v 20.47071 c 9.04316,1.07728 18.21512,2.74384 27.49024,4.83789 v -20.47071 c -9.27512,-2.09407 -18.44708,-3.76058 -27.49024,-4.83789 z m 57.39844,12.83985 v 20.4707 c 9.0935,2.76004 18.26099,5.78221 27.49219,8.9668 v -20.47071 c -9.2312,-3.18463 -18.39869,-6.20677 -27.49219,-8.96679 z m -80.19922,7.41797 c -1.97443,0 -3.9386,0.0481 -5.89844,0.11914 v 20.4707 c 1.95984,-0.0711 3.92401,-0.11899 5.89844,-0.11914 2.41376,-3.8e-4 4.83859,0.0518 7.27344,0.15234 4.73431,0.19529 9.50902,0.57886 14.31836,1.125 V 670.625 c -4.80934,-0.5461 -9.58405,-0.9296 -14.31836,-1.125 -2.43485,-0.10054 -4.85968,-0.15253 -7.27344,-0.15234 z m -35.80664,4.37304 c -9.38188,2.44112 -18.55305,5.98731 -27.49024,10.82227 v 20.4707 c 8.93719,-4.835 18.10836,-8.38114 27.49024,-10.82226 z m 87.30664,2.15235 v 20.4707 c 9.0683,2.08256 18.24033,4.58825 27.49023,7.37305 v -20.47071 c -9.2499,-2.78483 -18.42193,-5.29049 -27.49023,-7.37304 z m 86.09961,5.65234 v 20.4707 c 9.1323,3.29802 18.29593,6.60739 27.49023,9.83594 v -20.4707 c -9.1943,-3.22851 -18.35793,-6.53796 -27.49023,-9.83594 z m -144.70703,9.66797 c -9.34008,0.41102 -18.51065,1.65837 -27.49024,3.90039 v 20.46875 c 8.97959,-2.24202 18.15016,-3.48937 27.49024,-3.90039 z m 29.9082,1.25586 v 20.46875 c 9.04316,1.07728 18.21512,2.74384 27.49024,4.83789 v -20.46875 c -9.27512,-2.09405 -18.44708,-3.76061 -27.49024,-4.83789 z m 86.09766,0.54687 v 20.47071 c 7.1291,2.46814 14.29102,5.01552 21.48242,7.60351 1.9981,0.7191 4.00767,1.44514 6.00976,2.16797 v -20.4707 c -2.00209,-0.7228 -4.01166,-1.44892 -6.00976,-2.16797 -7.1914,-2.58803 -14.35332,-5.13537 -21.48242,-7.60352 z m 86.09961,8.38672 v 20.47071 c 9.1638,2.87969 18.33173,5.52903 27.49023,7.87695 v -20.4707 c -9.1585,-2.34792 -18.32643,-4.99726 -27.49023,-7.87696 z m -114.79883,3.90625 v 20.46875 c 9.0935,2.76004 18.26099,5.78221 27.49219,8.9668 v -20.46875 c -9.2312,-3.18459 -18.39869,-6.20676 -27.49219,-8.9668 z m -80.19922,7.41602 c -1.97443,0 -3.9386,0.0481 -5.89844,0.11914 v 20.4707 c 1.95984,-0.0711 3.92401,-0.11895 5.89844,-0.11914 2.41376,-3.8e-4 4.83859,0.0518 7.27344,0.15234 4.73431,0.19529 9.50902,0.57886 14.31836,1.125 v -20.4707 c -4.80934,-0.54614 -9.58405,-0.9296 -14.31836,-1.125 -2.43485,-0.10053 -4.85968,-0.15253 -7.27344,-0.15234 z m 337.28516,0.61133 c -9.084,2.46054 -18.25314,4.07985 -27.49024,4.96679 v 20.47071 c 9.2371,-0.88695 18.40624,-2.50625 27.49024,-4.9668 z m -170.98633,0.14648 v 20.4707 c 9.1473,3.20319 18.31503,6.31304 27.49023,9.21485 v -20.47071 c -9.1752,-2.9018 -18.34293,-6.01169 -27.49023,-9.21484 z m 86.09765,2.20508 v 20.4707 c 2.2731,0.37788 4.54506,0.73343 6.81446,1.05469 6.9125,0.97841 13.80598,1.6795 20.67578,2.06641 v -20.47071 c -6.8698,-0.38691 -13.76328,-1.08804 -20.67578,-2.0664 -2.2694,-0.32123 -4.54136,-0.67674 -6.81446,-1.05469 z m -288.20312,1.41015 c -9.38188,2.44113 -18.55305,5.98731 -27.49024,10.82227 v 20.4707 c 8.93719,-4.83499 18.10836,-8.3811 27.49024,-10.82226 z m 87.30664,2.15235 v 20.4707 c 9.0683,2.08256 18.24033,4.58826 27.49023,7.37305 v -20.4707 c -9.2499,-2.7848 -18.42193,-5.29049 -27.49023,-7.37305 z m 86.09961,5.6543 v 20.46875 c 9.1323,3.29801 18.29593,6.60742 27.49023,9.83593 V 734.7207 c -9.1943,-3.22851 -18.35793,-6.53792 -27.49023,-9.83593 z m 86.09765,6.36328 v 20.4707 c 9.1798,2.32505 18.34894,4.3442 27.49024,5.90234 v -20.4707 c -9.1413,-1.55815 -18.31044,-3.57729 -27.49024,-5.90234 z m -230.80468,3.30273 c -9.34008,0.41102 -18.51065,1.65841 -27.49024,3.90039 v 20.47071 c 8.97959,-2.24202 18.15016,-3.48941 27.49024,-3.9004 z m 29.9082,1.25586 v 20.4707 c 9.04316,1.07728 18.21512,2.74381 27.49024,4.83789 v -20.4707 c -9.27512,-2.09408 -18.44708,-3.76061 -27.49024,-4.83789 z m 86.09766,0.54688 v 20.4707 c 7.1291,2.46814 14.29102,5.01548 21.48242,7.60351 1.9981,0.71906 4.00767,1.44514 6.00976,2.16797 V 746.125 c -2.00209,-0.72283 -4.01166,-1.44891 -6.00976,-2.16797 -7.1914,-2.58803 -14.35332,-5.13537 -21.48242,-7.60351 z m 199.6875,3.72265 c -9.1048,0.81166 -18.27524,0.91781 -27.49024,0.44922 v 20.4707 c 9.215,0.46859 18.38544,0.36236 27.49024,-0.44921 z m -113.58789,4.66602 v 20.46875 c 9.1638,2.8797 18.33173,5.52903 27.49023,7.87695 v -20.46875 c -9.1585,-2.34792 -18.32643,-4.99725 -27.49023,-7.87695 z m -114.79883,3.90429 v 20.47071 c 9.0935,2.76004 18.26099,5.7822 27.49219,8.96679 v -20.4707 c -9.2312,-3.18463 -18.39869,-6.20676 -27.49219,-8.9668 z m -80.19922,7.41797 c -1.97443,0 -3.9386,0.0481 -5.89844,0.11914 v 20.47071 c 1.95984,-0.0711 3.92401,-0.11899 5.89844,-0.11914 2.41376,-3.8e-4 4.83859,0.0518 7.27344,0.15234 4.73431,0.19533 9.50902,0.57886 14.31836,1.125 v -20.4707 c -4.80934,-0.54614 -9.58405,-0.9296 -14.31836,-1.125 -2.43485,-0.10054 -4.85968,-0.15254 -7.27344,-0.15235 z m 337.28516,0.61133 c -9.084,2.46055 -18.25314,4.07986 -27.49024,4.9668 v 20.46875 c 9.2371,-0.88694 18.40624,-2.50625 27.49024,-4.9668 z m -170.98633,0.14453 v 20.47071 c 9.1473,3.20318 18.31503,6.31303 27.49023,9.21484 v -20.4707 c -9.1752,-2.90181 -18.34293,-6.0117 -27.49023,-9.21485 z m 86.09765,2.20703 v 20.46875 c 2.2731,0.37788 4.54506,0.73343 6.81446,1.05469 6.9125,0.97837 13.80598,1.6795 20.67578,2.06641 v -20.46875 c -6.8698,-0.38691 -13.76328,-1.08804 -20.67578,-2.06641 -2.2694,-0.32122 -4.54136,-0.67673 -6.81446,-1.05469 z m -288.20312,1.41016 c -9.38188,2.44116 -18.55305,5.9873 -27.49024,10.82227 v 20.4707 c 8.93719,-4.83496 18.10836,-8.38115 27.49024,-10.82227 z m 87.30664,2.15234 v 20.47071 c 9.0683,2.08255 18.24033,4.58825 27.49023,7.37304 v -20.4707 c -9.2499,-2.78483 -18.42193,-5.29049 -27.49023,-7.37305 z m 86.09961,5.65235 v 20.4707 c 9.1323,3.29802 18.29593,6.60739 27.49023,9.83594 v -20.47071 c -9.1943,-3.22851 -18.35793,-6.53795 -27.49023,-9.83593 z m 86.09765,6.36328 v 20.4707 c 9.1798,2.32505 18.34894,4.3442 27.49024,5.90235 v -20.47071 c -9.1413,-1.55815 -18.31044,-3.57729 -27.49024,-5.90234 z m -230.80468,3.30469 c -9.34008,0.41102 -18.51065,1.65837 -27.49024,3.90039 v 20.4707 c 8.97959,-2.24198 18.15016,-3.48937 27.49024,-3.90039 z m 29.9082,1.25586 v 20.4707 c 9.04316,1.07732 18.21512,2.7438 27.49024,4.83789 v -20.4707 c -9.27512,-2.09405 -18.44708,-3.76062 -27.49024,-4.83789 z m 86.09766,0.54687 v 20.4707 c 7.1291,2.46811 14.29102,5.01553 21.48242,7.60352 1.9981,0.71909 4.00767,1.44513 6.00976,2.16797 v -20.4707 c -2.00209,-0.72284 -4.01166,-1.44892 -6.00976,-2.16797 -7.1914,-2.58804 -14.35332,-5.13537 -21.48242,-7.60352 z m 199.6875,3.7207 c -9.1048,0.8117 -18.27524,0.91777 -27.49024,0.44922 v 20.47071 c 9.215,0.46858 18.38544,0.36235 27.49024,-0.44922 z m -113.58789,4.66602 v 20.4707 c 9.1638,2.8797 18.33173,5.52904 27.49023,7.87696 v -20.47071 c -9.1585,-2.34792 -18.32643,-4.99725 -27.49023,-7.87695 z m -114.79883,3.90625 v 20.4707 c 9.0935,2.76008 18.26099,5.78217 27.49219,8.9668 v -20.4707 c -9.2312,-3.1846 -18.39869,-6.20676 -27.49219,-8.9668 z m -80.19922,7.41797 c -1.97443,0 -3.9386,0.0481 -5.89844,0.11914 v 20.4707 c 1.95984,-0.0711 3.92401,-0.11899 5.89844,-0.11914 2.41376,-3.8e-4 4.83859,0.0518 7.27344,0.15235 4.73431,0.19532 9.50902,0.57885 14.31836,1.125 v -20.47071 c -4.80934,-0.54614 -9.58405,-0.9296 -14.31836,-1.125 -2.43485,-0.10053 -4.85968,-0.15257 -7.27344,-0.15234 z m 337.28516,0.60937 c -9.084,2.46055 -18.25314,4.07986 -27.49024,4.9668 v 20.4707 c 9.2371,-0.88694 18.40624,-2.50621 27.49024,-4.96679 z m -170.98633,0.14649 v 20.4707 c 9.1473,3.20319 18.31503,6.313 27.49023,9.21484 v -20.4707 c -9.1752,-2.90181 -18.34293,-6.01169 -27.49023,-9.21484 z m 86.09765,2.20508 v 20.4707 c 2.2731,0.37788 4.54506,0.73343 6.81446,1.05469 6.9125,0.97836 13.80598,1.67949 20.67578,2.0664 v -20.4707 c -6.8698,-0.38691 -13.76328,-1.08804 -20.67578,-2.06641 -2.2694,-0.32122 -4.54136,-0.67673 -6.81446,-1.05468 z m -288.20312,1.41211 c -9.38188,2.44115 -18.55305,5.9873 -27.49024,10.82226 v 20.4707 c 8.93719,-4.83496 18.10836,-8.38114 27.49024,-10.82226 z m 87.30664,2.15234 v 20.4707 c 9.0683,2.08252 18.24033,4.58826 27.49023,7.37305 v -20.4707 c -9.2499,-2.7848 -18.42193,-5.29049 -27.49023,-7.37305 z m 86.09961,5.65234 v 20.47071 c 9.1323,3.29801 18.29593,6.60739 27.49023,9.83593 v -20.4707 c -9.1943,-3.22855 -18.35793,-6.53792 -27.49023,-9.83594 z m 86.09765,6.36328 v 20.47071 c 9.1798,2.32501 18.34894,4.34419 27.49024,5.90234 v -20.4707 c -9.1413,-1.55815 -18.31044,-3.57729 -27.49024,-5.90235 z m -230.80468,3.30469 c -9.34008,0.41099 -18.51065,1.65838 -27.49024,3.90039 v 20.46875 c 8.97959,-2.24201 18.15016,-3.4894 27.49024,-3.90039 z m 29.9082,1.25586 v 20.46875 c 9.04316,1.07732 18.21512,2.74381 27.49024,4.83789 v -20.46875 c -9.27512,-2.09408 -18.44708,-3.76061 -27.49024,-4.83789 z m 86.09766,0.54688 v 20.4707 c 7.1291,2.46811 14.29102,5.01548 21.48242,7.60351 1.9981,0.7191 4.00767,1.44514 6.00976,2.16797 v -20.4707 c -2.00209,-0.72283 -4.01166,-1.44888 -6.00976,-2.16797 -7.1914,-2.58799 -14.35332,-5.13541 -21.48242,-7.60351 z m 199.6875,3.7207 c -9.1048,0.81165 -18.27524,0.9178 -27.49024,0.44922 v 20.4707 c 9.215,0.46859 18.38544,0.36236 27.49024,-0.44922 z m -113.58789,4.66601 v 20.47071 c 9.1638,2.87973 18.33173,5.52907 27.49023,7.87695 v -20.4707 c -9.1585,-2.34792 -18.32643,-4.99726 -27.49023,-7.87696 z m -114.79883,3.90625 v 20.46875 c 9.0935,2.76004 18.26099,5.78221 27.49219,8.9668 v -20.46875 c -9.2312,-3.18459 -18.39869,-6.20676 -27.49219,-8.9668 z m -80.19922,7.41602 c -1.97443,0 -3.9386,0.0481 -5.89844,0.11914 v 20.4707 c 1.95984,-0.0711 3.92401,-0.11899 5.89844,-0.11914 2.41376,-3.7e-4 4.83859,0.0518 7.27344,0.15235 4.73431,0.19532 9.50902,0.57886 14.31836,1.125 v -20.47071 c -4.80934,-0.54614 -9.58405,-0.92959 -14.31836,-1.125 -2.43485,-0.10053 -4.85968,-0.15253 -7.27344,-0.15234 z m 337.28516,0.61133 c -9.084,2.46055 -18.25314,4.07985 -27.49024,4.9668 v 20.4707 c 9.2371,-0.88691 18.40624,-2.50625 27.49024,-4.9668 z m -170.98633,0.14648 v 20.47071 c 9.1473,3.20318 18.31503,6.31303 27.49023,9.21484 v -20.4707 c -9.1752,-2.90185 -18.34293,-6.01166 -27.49023,-9.21485 z m 86.09765,2.20508 v 20.4707 c 2.2731,0.37784 4.54506,0.73343 6.81446,1.05469 6.9125,0.97837 13.80598,1.6795 20.67578,2.06641 v -20.47071 c -6.8698,-0.38691 -13.76328,-1.08803 -20.67578,-2.0664 -2.2694,-0.32119 -4.54136,-0.67674 -6.81446,-1.05469 z m -288.20312,1.41016 c -9.38188,2.44116 -18.55305,5.98726 -27.49024,10.82226 v 20.47071 c 8.93719,-4.83497 18.10836,-8.38115 27.49024,-10.82227 z m 87.30664,2.15234 v 20.4707 c 9.0683,2.08256 18.24033,4.58826 27.49023,7.37305 v -20.4707 c -9.2499,-2.7848 -18.42193,-5.29049 -27.49023,-7.37305 z m 86.09961,5.6543 v 20.46875 c 9.1323,3.29801 18.29593,6.60739 27.49023,9.83593 v -20.46874 c -9.1943,-3.22855 -18.35793,-6.53793 -27.49023,-9.83594 z m 86.09765,6.36328 v 20.4707 c 9.1798,2.32502 18.34894,4.3442 27.49024,5.90235 v -20.47071 c -9.1413,-1.55815 -18.31044,-3.57733 -27.49024,-5.90234 z m -114.79882,5.10547 v 20.4707 c 7.1291,2.46811 14.29102,5.01552 21.48242,7.60352 1.9981,0.71909 4.00767,1.44513 6.00976,2.16797 v -20.47071 c -2.00209,-0.72283 -4.01166,-1.44891 -6.00976,-2.16797 -7.1914,-2.58803 -14.35332,-5.13541 -21.48242,-7.60351 z m 199.6875,3.72265 c -9.1048,0.8117 -18.27524,0.91781 -27.49024,0.44922 v 20.47071 c 9.215,0.46858 18.38544,0.36232 27.49024,-0.44922 z m -113.58789,4.66602 v 20.46875 c 9.1638,2.87973 18.33173,5.52903 27.49023,7.87695 v -20.46875 c -9.1585,-2.34792 -18.32643,-4.99722 -27.49023,-7.87695 z m 142.28711,11.93359 c -9.084,2.46059 -18.25314,4.0799 -27.49024,4.9668 v 20.46875 c 9.2371,-0.8869 18.40624,-2.50621 27.49024,-4.9668 z m -170.98633,0.14453 v 20.47071 c 9.1473,3.20318 18.31503,6.313 27.49023,9.21484 v -20.4707 c -9.1752,-2.90181 -18.34293,-6.01166 -27.49023,-9.21485 z m 86.09765,2.20704 v 20.46875 c 2.2731,0.37783 4.54506,0.73342 6.81446,1.05468 6.9125,0.97837 13.80598,1.6795 20.67578,2.06641 v -20.46875 c -6.8698,-0.38691 -13.76328,-1.08804 -20.67578,-2.06641 -2.2694,-0.32118 -4.54136,-0.67673 -6.81446,-1.05468 z m -28.69922,15.57812 v 20.4707 c 9.1798,2.32502 18.34894,4.3442 27.49024,5.90235 v -20.47071 c -9.1413,-1.55814 -18.31044,-3.57729 -27.49024,-5.90234 z m 84.88868,8.82813 c -9.1048,0.81165 -18.27524,0.9178 -27.49024,0.44921 v 20.47071 c 9.215,0.46858 18.38544,0.36232 27.49024,-0.44922 z"
           transform="matrix(0.26458333,0,0,0.26458333,-244.42835,-75.248824)" />
      </g>
    </g>
    <g
       id="g3384"
       transform="matrix(-0.92673319,0.37572009,0.37572009,0.92673319,-356.01469,47.584699)">
      <path
         style="opacity:1;fill:#000000;fill-opacity:1;fill-rule:evenodd;stroke:#000000;stroke-width:4.0252;stroke-linejoin:round;stroke-miterlimit:4;stroke-dasharray:none;stroke-dashoffset:10.0157;stroke-opacity:1"
         d="m 438.50586,646.91797 c -22.53807,0.002 -44.13688,4.52751 -64.50586,15.83984 V 880.625 c 20.38774,-11.20158 42.0059,-15.70406 64.50195,-15.71094 2.4282,-7.4e-4 4.8663,0.0514 7.31446,0.15235 39.17053,1.61593 80.85234,15.84261 123.41015,31.1582 42.55783,15.31559 85.99651,31.72346 128.63086,37.75781 26.83828,3.7986 53.34769,3.4906 79.14258,-3.76953 V 712.25 c -25.86874,7.22775 -52.44351,7.52146 -79.2832,3.72266 -42.78995,-6.05639 -86.28244,-22.49078 -128.83008,-37.80274 -42.54763,-15.31192 -84.14949,-29.49246 -123.10742,-31.09961 -2.43487,-0.10044 -4.85969,-0.15254 -7.27344,-0.15234 z"
         id="path3376"
         transform="matrix(0.26458333,0,0,0.26458333,-244.42835,-75.248824)" />
      <g
         id="g3382">
        <rect
           style="opacity:1;fill:#000000;fill-opacity:1;fill-rule:evenodd;stroke:#000000;stroke-width:1.18006;stroke-linejoin:round;stroke-miterlimit:4;stroke-dasharray:none;stroke-dashoffset:10.0157;stroke-opacity:1"
           id="rect3378"
           width="1.8693219"
           height="157.58763"
           x="-145.41666"
           y="100.16337" />
        <path
           id="path3380"
           style="opacity:1;fill:#ffffff;fill-opacity:1;fill-rule:evenodd;stroke:none;stroke-width:4.0252;stroke-linejoin:round;stroke-miterlimit:4;stroke-dasharray:none;stroke-dashoffset:10.0157;stroke-opacity:0"
           d="m 431.39844,647.83398 c -9.34008,0.41101 -18.51065,1.65839 -27.49024,3.9004 v 20.4707 c 8.97959,-2.24202 18.15016,-3.48941 27.49024,-3.90039 z m 29.9082,1.25586 v 20.47071 c 9.04316,1.07728 18.21512,2.74384 27.49024,4.83789 v -20.47071 c -9.27512,-2.09407 -18.44708,-3.76058 -27.49024,-4.83789 z m 57.39844,12.83985 v 20.4707 c 9.0935,2.76004 18.26099,5.78221 27.49219,8.9668 v -20.47071 c -9.2312,-3.18463 -18.39869,-6.20677 -27.49219,-8.96679 z m -80.19922,7.41797 c -1.97443,0 -3.9386,0.0481 -5.89844,0.11914 v 20.4707 c 1.95984,-0.0711 3.92401,-0.11899 5.89844,-0.11914 2.41376,-3.8e-4 4.83859,0.0518 7.27344,0.15234 4.73431,0.19529 9.50902,0.57886 14.31836,1.125 V 670.625 c -4.80934,-0.5461 -9.58405,-0.9296 -14.31836,-1.125 -2.43485,-0.10054 -4.85968,-0.15253 -7.27344,-0.15234 z m -35.80664,4.37304 c -9.38188,2.44112 -18.55305,5.98731 -27.49024,10.82227 v 20.4707 c 8.93719,-4.835 18.10836,-8.38114 27.49024,-10.82226 z m 87.30664,2.15235 v 20.4707 c 9.0683,2.08256 18.24033,4.58825 27.49023,7.37305 v -20.47071 c -9.2499,-2.78483 -18.42193,-5.29049 -27.49023,-7.37304 z m 86.09961,5.65234 v 20.4707 c 9.1323,3.29802 18.29593,6.60739 27.49023,9.83594 v -20.4707 c -9.1943,-3.22851 -18.35793,-6.53796 -27.49023,-9.83594 z m -144.70703,9.66797 c -9.34008,0.41102 -18.51065,1.65837 -27.49024,3.90039 v 20.46875 c 8.97959,-2.24202 18.15016,-3.48937 27.49024,-3.90039 z m 29.9082,1.25586 v 20.46875 c 9.04316,1.07728 18.21512,2.74384 27.49024,4.83789 v -20.46875 c -9.27512,-2.09405 -18.44708,-3.76061 -27.49024,-4.83789 z m 86.09766,0.54687 v 20.47071 c 7.1291,2.46814 14.29102,5.01552 21.48242,7.60351 1.9981,0.7191 4.00767,1.44514 6.00976,2.16797 v -20.4707 c -2.00209,-0.7228 -4.01166,-1.44892 -6.00976,-2.16797 -7.1914,-2.58803 -14.35332,-5.13537 -21.48242,-7.60352 z m 86.09961,8.38672 v 20.47071 c 9.1638,2.87969 18.33173,5.52903 27.49023,7.87695 v -20.4707 c -9.1585,-2.34792 -18.32643,-4.99726 -27.49023,-7.87696 z m -114.79883,3.90625 v 20.46875 c 9.0935,2.76004 18.26099,5.78221 27.49219,8.9668 v -20.46875 c -9.2312,-3.18459 -18.39869,-6.20676 -27.49219,-8.9668 z m -80.19922,7.41602 c -1.97443,0 -3.9386,0.0481 -5.89844,0.11914 v 20.4707 c 1.95984,-0.0711 3.92401,-0.11895 5.89844,-0.11914 2.41376,-3.8e-4 4.83859,0.0518 7.27344,0.15234 4.73431,0.19529 9.50902,0.57886 14.31836,1.125 v -20.4707 c -4.80934,-0.54614 -9.58405,-0.9296 -14.31836,-1.125 -2.43485,-0.10053 -4.85968,-0.15253 -7.27344,-0.15234 z m 337.28516,0.61133 c -9.084,2.46054 -18.25314,4.07985 -27.49024,4.96679 v 20.47071 c 9.2371,-0.88695 18.40624,-2.50625 27.49024,-4.9668 z m -170.98633,0.14648 v 20.4707 c 9.1473,3.20319 18.31503,6.31304 27.49023,9.21485 v -20.47071 c -9.1752,-2.9018 -18.34293,-6.01169 -27.49023,-9.21484 z m 86.09765,2.20508 v 20.4707 c 2.2731,0.37788 4.54506,0.73343 6.81446,1.05469 6.9125,0.97841 13.80598,1.6795 20.67578,2.06641 v -20.47071 c -6.8698,-0.38691 -13.76328,-1.08804 -20.67578,-2.0664 -2.2694,-0.32123 -4.54136,-0.67674 -6.81446,-1.05469 z m -288.20312,1.41015 c -9.38188,2.44113 -18.55305,5.98731 -27.49024,10.82227 v 20.4707 c 8.93719,-4.83499 18.10836,-8.3811 27.49024,-10.82226 z m 87.30664,2.15235 v 20.4707 c 9.0683,2.08256 18.24033,4.58826 27.49023,7.37305 v -20.4707 c -9.2499,-2.7848 -18.42193,-5.29049 -27.49023,-7.37305 z m 86.09961,5.6543 v 20.46875 c 9.1323,3.29801 18.29593,6.60742 27.49023,9.83593 V 734.7207 c -9.1943,-3.22851 -18.35793,-6.53792 -27.49023,-9.83593 z m 86.09765,6.36328 v 20.4707 c 9.1798,2.32505 18.34894,4.3442 27.49024,5.90234 v -20.4707 c -9.1413,-1.55815 -18.31044,-3.57729 -27.49024,-5.90234 z m -230.80468,3.30273 c -9.34008,0.41102 -18.51065,1.65841 -27.49024,3.90039 v 20.47071 c 8.97959,-2.24202 18.15016,-3.48941 27.49024,-3.9004 z m 29.9082,1.25586 v 20.4707 c 9.04316,1.07728 18.21512,2.74381 27.49024,4.83789 v -20.4707 c -9.27512,-2.09408 -18.44708,-3.76061 -27.49024,-4.83789 z m 86.09766,0.54688 v 20.4707 c 7.1291,2.46814 14.29102,5.01548 21.48242,7.60351 1.9981,0.71906 4.00767,1.44514 6.00976,2.16797 V 746.125 c -2.00209,-0.72283 -4.01166,-1.44891 -6.00976,-2.16797 -7.1914,-2.58803 -14.35332,-5.13537 -21.48242,-7.60351 z m 199.6875,3.72265 c -9.1048,0.81166 -18.27524,0.91781 -27.49024,0.44922 v 20.4707 c 9.215,0.46859 18.38544,0.36236 27.49024,-0.44921 z m -113.58789,4.66602 v 20.46875 c 9.1638,2.8797 18.33173,5.52903 27.49023,7.87695 v -20.46875 c -9.1585,-2.34792 -18.32643,-4.99725 -27.49023,-7.87695 z m -114.79883,3.90429 v 20.47071 c 9.0935,2.76004 18.26099,5.7822 27.49219,8.96679 v -20.4707 c -9.2312,-3.18463 -18.39869,-6.20676 -27.49219,-8.9668 z m -80.19922,7.41797 c -1.97443,0 -3.9386,0.0481 -5.89844,0.11914 v 20.47071 c 1.95984,-0.0711 3.92401,-0.11899 5.89844,-0.11914 2.41376,-3.8e-4 4.83859,0.0518 7.27344,0.15234 4.73431,0.19533 9.50902,0.57886 14.31836,1.125 v -20.4707 c -4.80934,-0.54614 -9.58405,-0.9296 -14.31836,-1.125 -2.43485,-0.10054 -4.85968,-0.15254 -7.27344,-0.15235 z m 337.28516,0.61133 c -9.084,2.46055 -18.25314,4.07986 -27.49024,4.9668 v 20.46875 c 9.2371,-0.88694 18.40624,-2.50625 27.49024,-4.9668 z m -170.98633,0.14453 v 20.47071 c 9.1473,3.20318 18.31503,6.31303 27.49023,9.21484 v -20.4707 c -9.1752,-2.90181 -18.34293,-6.0117 -27.49023,-9.21485 z m 86.09765,2.20703 v 20.46875 c 2.2731,0.37788 4.54506,0.73343 6.81446,1.05469 6.9125,0.97837 13.80598,1.6795 20.67578,2.06641 v -20.46875 c -6.8698,-0.38691 -13.76328,-1.08804 -20.67578,-2.06641 -2.2694,-0.32122 -4.54136,-0.67673 -6.81446,-1.05469 z m -288.20312,1.41016 c -9.38188,2.44116 -18.55305,5.9873 -27.49024,10.82227 v 20.4707 c 8.93719,-4.83496 18.10836,-8.38115 27.49024,-10.82227 z m 87.30664,2.15234 v 20.47071 c 9.0683,2.08255 18.24033,4.58825 27.49023,7.37304 v -20.4707 c -9.2499,-2.78483 -18.42193,-5.29049 -27.49023,-7.37305 z m 86.09961,5.65235 v 20.4707 c 9.1323,3.29802 18.29593,6.60739 27.49023,9.83594 v -20.47071 c -9.1943,-3.22851 -18.35793,-6.53795 -27.49023,-9.83593 z m 86.09765,6.36328 v 20.4707 c 9.1798,2.32505 18.34894,4.3442 27.49024,5.90235 v -20.47071 c -9.1413,-1.55815 -18.31044,-3.57729 -27.49024,-5.90234 z m -230.80468,3.30469 c -9.34008,0.41102 -18.51065,1.65837 -27.49024,3.90039 v 20.4707 c 8.97959,-2.24198 18.15016,-3.48937 27.49024,-3.90039 z m 29.9082,1.25586 v 20.4707 c 9.04316,1.07732 18.21512,2.7438 27.49024,4.83789 v -20.4707 c -9.27512,-2.09405 -18.44708,-3.76062 -27.49024,-4.83789 z m 86.09766,0.54687 v 20.4707 c 7.1291,2.46811 14.29102,5.01553 21.48242,7.60352 1.9981,0.71909 4.00767,1.44513 6.00976,2.16797 v -20.4707 c -2.00209,-0.72284 -4.01166,-1.44892 -6.00976,-2.16797 -7.1914,-2.58804 -14.35332,-5.13537 -21.48242,-7.60352 z m 199.6875,3.7207 c -9.1048,0.8117 -18.27524,0.91777 -27.49024,0.44922 v 20.47071 c 9.215,0.46858 18.38544,0.36235 27.49024,-0.44922 z m -113.58789,4.66602 v 20.4707 c 9.1638,2.8797 18.33173,5.52904 27.49023,7.87696 v -20.47071 c -9.1585,-2.34792 -18.32643,-4.99725 -27.49023,-7.87695 z m -114.79883,3.90625 v 20.4707 c 9.0935,2.76008 18.26099,5.78217 27.49219,8.9668 v -20.4707 c -9.2312,-3.1846 -18.39869,-6.20676 -27.49219,-8.9668 z m -80.19922,7.41797 c -1.97443,0 -3.9386,0.0481 -5.89844,0.11914 v 20.4707 c 1.95984,-0.0711 3.92401,-0.11899 5.89844,-0.11914 2.41376,-3.8e-4 4.83859,0.0518 7.27344,0.15235 4.73431,0.19532 9.50902,0.57885 14.31836,1.125 v -20.47071 c -4.80934,-0.54614 -9.58405,-0.9296 -14.31836,-1.125 -2.43485,-0.10053 -4.85968,-0.15257 -7.27344,-0.15234 z m 337.28516,0.60937 c -9.084,2.46055 -18.25314,4.07986 -27.49024,4.9668 v 20.4707 c 9.2371,-0.88694 18.40624,-2.50621 27.49024,-4.96679 z m -170.98633,0.14649 v 20.4707 c 9.1473,3.20319 18.31503,6.313 27.49023,9.21484 v -20.4707 c -9.1752,-2.90181 -18.34293,-6.01169 -27.49023,-9.21484 z m 86.09765,2.20508 v 20.4707 c 2.2731,0.37788 4.54506,0.73343 6.81446,1.05469 6.9125,0.97836 13.80598,1.67949 20.67578,2.0664 v -20.4707 c -6.8698,-0.38691 -13.76328,-1.08804 -20.67578,-2.06641 -2.2694,-0.32122 -4.54136,-0.67673 -6.81446,-1.05468 z m -288.20312,1.41211 c -9.38188,2.44115 -18.55305,5.9873 -27.49024,10.82226 v 20.4707 c 8.93719,-4.83496 18.10836,-8.38114 27.49024,-10.82226 z m 87.30664,2.15234 v 20.4707 c 9.0683,2.08252 18.24033,4.58826 27.49023,7.37305 v -20.4707 c -9.2499,-2.7848 -18.42193,-5.29049 -27.49023,-7.37305 z m 86.09961,5.65234 v 20.47071 c 9.1323,3.29801 18.29593,6.60739 27.49023,9.83593 v -20.4707 c -9.1943,-3.22855 -18.35793,-6.53792 -27.49023,-9.83594 z m 86.09765,6.36328 v 20.47071 c 9.1798,2.32501 18.34894,4.34419 27.49024,5.90234 v -20.4707 c -9.1413,-1.55815 -18.31044,-3.57729 -27.49024,-5.90235 z m -230.80468,3.30469 c -9.34008,0.41099 -18.51065,1.65838 -27.49024,3.90039 v 20.46875 c 8.97959,-2.24201 18.15016,-3.4894 27.49024,-3.90039 z m 29.9082,1.25586 v 20.46875 c 9.04316,1.07732 18.21512,2.74381 27.49024,4.83789 v -20.46875 c -9.27512,-2.09408 -18.44708,-3.76061 -27.49024,-4.83789 z m 86.09766,0.54688 v 20.4707 c 7.1291,2.46811 14.29102,5.01548 21.48242,7.60351 1.9981,0.7191 4.00767,1.44514 6.00976,2.16797 v -20.4707 c -2.00209,-0.72283 -4.01166,-1.44888 -6.00976,-2.16797 -7.1914,-2.58799 -14.35332,-5.13541 -21.48242,-7.60351 z m 199.6875,3.7207 c -9.1048,0.81165 -18.27524,0.9178 -27.49024,0.44922 v 20.4707 c 9.215,0.46859 18.38544,0.36236 27.49024,-0.44922 z m -113.58789,4.66601 v 20.47071 c 9.1638,2.87973 18.33173,5.52907 27.49023,7.87695 v -20.4707 c -9.1585,-2.34792 -18.32643,-4.99726 -27.49023,-7.87696 z m -114.79883,3.90625 v 20.46875 c 9.0935,2.76004 18.26099,5.78221 27.49219,8.9668 v -20.46875 c -9.2312,-3.18459 -18.39869,-6.20676 -27.49219,-8.9668 z m -80.19922,7.41602 c -1.97443,0 -3.9386,0.0481 -5.89844,0.11914 v 20.4707 c 1.95984,-0.0711 3.92401,-0.11899 5.89844,-0.11914 2.41376,-3.7e-4 4.83859,0.0518 7.27344,0.15235 4.73431,0.19532 9.50902,0.57886 14.31836,1.125 v -20.47071 c -4.80934,-0.54614 -9.58405,-0.92959 -14.31836,-1.125 -2.43485,-0.10053 -4.85968,-0.15253 -7.27344,-0.15234 z m 337.28516,0.61133 c -9.084,2.46055 -18.25314,4.07985 -27.49024,4.9668 v 20.4707 c 9.2371,-0.88691 18.40624,-2.50625 27.49024,-4.9668 z m -170.98633,0.14648 v 20.47071 c 9.1473,3.20318 18.31503,6.31303 27.49023,9.21484 v -20.4707 c -9.1752,-2.90185 -18.34293,-6.01166 -27.49023,-9.21485 z m 86.09765,2.20508 v 20.4707 c 2.2731,0.37784 4.54506,0.73343 6.81446,1.05469 6.9125,0.97837 13.80598,1.6795 20.67578,2.06641 v -20.47071 c -6.8698,-0.38691 -13.76328,-1.08803 -20.67578,-2.0664 -2.2694,-0.32119 -4.54136,-0.67674 -6.81446,-1.05469 z m -288.20312,1.41016 c -9.38188,2.44116 -18.55305,5.98726 -27.49024,10.82226 v 20.47071 c 8.93719,-4.83497 18.10836,-8.38115 27.49024,-10.82227 z m 87.30664,2.15234 v 20.4707 c 9.0683,2.08256 18.24033,4.58826 27.49023,7.37305 v -20.4707 c -9.2499,-2.7848 -18.42193,-5.29049 -27.49023,-7.37305 z m 86.09961,5.6543 v 20.46875 c 9.1323,3.29801 18.29593,6.60739 27.49023,9.83593 v -20.46874 c -9.1943,-3.22855 -18.35793,-6.53793 -27.49023,-9.83594 z m 86.09765,6.36328 v 20.4707 c 9.1798,2.32502 18.34894,4.3442 27.49024,5.90235 v -20.47071 c -9.1413,-1.55815 -18.31044,-3.57733 -27.49024,-5.90234 z m -114.79882,5.10547 v 20.4707 c 7.1291,2.46811 14.29102,5.01552 21.48242,7.60352 1.9981,0.71909 4.00767,1.44513 6.00976,2.16797 v -20.47071 c -2.00209,-0.72283 -4.01166,-1.44891 -6.00976,-2.16797 -7.1914,-2.58803 -14.35332,-5.13541 -21.48242,-7.60351 z m 199.6875,3.72265 c -9.1048,0.8117 -18.27524,0.91781 -27.49024,0.44922 v 20.47071 c 9.215,0.46858 18.38544,0.36232 27.49024,-0.44922 z m -113.58789,4.66602 v 20.46875 c 9.1638,2.87973 18.33173,5.52903 27.49023,7.87695 v -20.46875 c -9.1585,-2.34792 -18.32643,-4.99722 -27.49023,-7.87695 z m 142.28711,11.93359 c -9.084,2.46059 -18.25314,4.0799 -27.49024,4.9668 v 20.46875 c 9.2371,-0.8869 18.40624,-2.50621 27.49024,-4.9668 z m -170.98633,0.14453 v 20.47071 c 9.1473,3.20318 18.31503,6.313 27.49023,9.21484 v -20.4707 c -9.1752,-2.90181 -18.34293,-6.01166 -27.49023,-9.21485 z m 86.09765,2.20704 v 20.46875 c 2.2731,0.37783 4.54506,0.73342 6.81446,1.05468 6.9125,0.97837 13.80598,1.6795 20.67578,2.06641 v -20.46875 c -6.8698,-0.38691 -13.76328,-1.08804 -20.67578,-2.06641 -2.2694,-0.32118 -4.54136,-0.67673 -6.81446,-1.05468 z m -28.69922,15.57812 v 20.4707 c 9.1798,2.32502 18.34894,4.3442 27.49024,5.90235 v -20.47071 c -9.1413,-1.55814 -18.31044,-3.57729 -27.49024,-5.90234 z m 84.88868,8.82813 c -9.1048,0.81165 -18.27524,0.9178 -27.49024,0.44921 v 20.47071 c 9.215,0.46858 18.38544,0.36232 27.49024,-0.44922 z"
           transform="matrix(0.26458333,0,0,0.26458333,-244.42835,-75.248824)" />
      </g>
    </g>
  </g>
</svg>
