<?xml version="1.0" encoding="UTF-8" standalone="no"?>
<svg
   xmlns:dc="http://purl.org/dc/elements/1.1/"
   xmlns:cc="http://creativecommons.org/ns#"
   xmlns:rdf="http://www.w3.org/1999/02/22-rdf-syntax-ns#"
   xmlns:svg="http://www.w3.org/2000/svg"
   xmlns="http://www.w3.org/2000/svg"
   xmlns:xlink="http://www.w3.org/1999/xlink"
   xmlns:sodipodi="http://sodipodi.sourceforge.net/DTD/sodipodi-0.dtd"
   xmlns:inkscape="http://www.inkscape.org/namespaces/inkscape"
   width="397.90637mm"
   height="266.58258mm"
   viewBox="0 0 397.90636 266.58258"
   version="1.1"
   id="svg8"
   inkscape:version="1.0.2 (e86c870879, 2021-01-15, custom)"
   sodipodi:docname="linhas_futuras.svg"
   inkscape:export-filename="D:\Users\anxol\Documentos\TFG\presentación\media\6\linhas_futuras.png"
   inkscape:export-xdpi="96"
   inkscape:export-ydpi="96">
  <defs
     id="defs2">
    <linearGradient
       inkscape:collect="always"
       id="linearGradient1171">
      <stop
         style="stop-color:#000000;stop-opacity:1;"
         offset="0"
         id="stop1167" />
      <stop
         style="stop-color:#000000;stop-opacity:0"
         offset="1"
         id="stop1169" />
    </linearGradient>
    <linearGradient
       inkscape:collect="always"
       xlink:href="#linearGradient1171"
       id="linearGradient1236"
       gradientUnits="userSpaceOnUse"
       x1="359.3168"
       y1="485.63379"
       x2="1273.4655"
       y2="485.63379"
       gradientTransform="matrix(0.31377771,0,0,0.26458333,-461.3781,-302.89414)" />
    <filter
       inkscape:collect="always"
       style="color-interpolation-filters:sRGB"
       id="filter1359"
       x="-0.0090418683"
       width="1.0180837"
       y="-0.010508097"
       height="1.0210162">
      <feGaussianBlur
         inkscape:collect="always"
         stdDeviation="1.1251598"
         id="feGaussianBlur1361" />
    </filter>
  </defs>
  <sodipodi:namedview
     id="base"
     pagecolor="#ffffff"
     bordercolor="#666666"
     borderopacity="1.0"
     inkscape:pageopacity="0.0"
     inkscape:pageshadow="2"
     inkscape:zoom="0.38124314"
     inkscape:cx="1105.5563"
     inkscape:cy="342.71488"
     inkscape:document-units="mm"
     inkscape:current-layer="layer1"
     inkscape:document-rotation="0"
     showgrid="false"
     showguides="false"
     inkscape:window-width="2560"
     inkscape:window-height="1377"
     inkscape:window-x="2552"
     inkscape:window-y="-8"
     inkscape:window-maximized="1" />
  <metadata
     id="metadata5">
    <rdf:RDF>
      <cc:Work
         rdf:about="">
        <dc:format>image/svg+xml</dc:format>
        <dc:type
           rdf:resource="http://purl.org/dc/dcmitype/StillImage" />
        <dc:title />
      </cc:Work>
    </rdf:RDF>
  </metadata>
  <g
     inkscape:label="Layer 1"
     inkscape:groupmode="layer"
     id="layer1"
     transform="translate(444.19917,307.69482)">
    <path
       id="rect835-0"
       style="opacity:0.8;fill:url(#linearGradient1236);fill-opacity:1;fill-rule:evenodd;stroke:none;stroke-width:6.61354;stroke-linejoin:round;stroke-dashoffset:10.0157;filter:url(#filter1359)"
       d="m -118.65685,-302.89414 v 14.87609 h -231.08994 v 12.81576 h 231.08994 v 14.87609 l 51.246898,-21.28397 z m -52.86358,53.60344 v 14.8761 h -178.22636 v 12.81575 h 178.22636 v 14.8761 l 39.52313,-21.28397 z m 28.37973,53.60345 v 14.8761 h -206.60609 v 12.81523 h 206.60609 v 14.8761 l 45.816437,-21.28397 z m 37.83901,53.60293 v 14.8761 h -244.4451 v 12.81575 h 244.4451 v 14.876097 l 54.20818,-21.283977 z m -60.65409,53.603448 v 14.876094 h -183.79101 v 12.815755 h 183.79101 v 14.876095 L -125.1984,-67.1969 Z" />
    <circle
       style="fill:#000000;fill-rule:evenodd;stroke-width:0.264583"
       id="path894"
       cx="-323.23868"
       cy="-174.40353"
       r="120.96049" />
    <circle
       style="fill:#e6e6e6;fill-rule:evenodd;stroke-width:0.242012"
       id="circle896"
       cx="-323.23868"
       cy="-174.40353"
       r="110.64159" />
    <path
       id="path1065"
       style="fill:#b3b3b3;fill-rule:evenodd;stroke:#000000;stroke-width:0.5;stroke-linejoin:round;stroke-miterlimit:4;stroke-dasharray:none;stroke-dashoffset:10.0157"
       d="m -323.23867,-285.04511 a 110.64158,110.64158 0 0 0 -4.0535,0.0744 v 12.57598 a 98.075278,98.075278 0 0 1 4.0535,-0.0842 98.075278,98.075278 0 0 1 4.0535,0.0842 v -12.57598 a 110.64158,110.64158 0 0 0 -4.0535,-0.0744 z m 25.68889,3.02307 -1.57459,5.87613 a 104.56111,104.56111 0 0 1 5.87301,1.57406 l 1.57459,-5.87561 a 110.64158,110.64158 0 0 0 -5.87301,-1.57458 z m -51.37776,5.2e-4 a 110.64158,110.64158 0 0 0 -5.87302,1.57355 l 1.57458,5.87612 a 104.56111,104.56111 0 0 1 5.87302,-1.57406 z m 77.46141,9.83713 -6.28798,10.89132 a 98.075278,98.075278 0 0 1 7.02181,4.0535 l 6.28798,-10.89081 a 110.64158,110.64158 0 0 0 -7.02181,-4.05401 z m -103.5456,5.1e-4 a 110.64158,110.64158 0 0 0 -7.02128,4.05298 l 6.28799,10.89133 a 98.075278,98.075278 0 0 1 7.02128,-4.0535 z m -24.28276,17.42478 a 110.64158,110.64158 0 0 0 -4.29948,4.29948 l 4.30155,4.30154 a 104.56111,104.56111 0 0 1 4.29948,-4.29948 z m 152.11164,0 -4.30102,4.30103 a 104.56111,104.56111 0 0 1 4.29895,4.29999 l 4.30155,-4.30154 a 110.64158,110.64158 0 0 0 -4.29948,-4.29948 z m -169.78291,21.56147 a 110.64158,110.64158 0 0 0 -4.0535,7.02128 l 10.89081,6.28799 a 98.075278,98.075278 0 0 1 4.05401,-7.02128 z m 187.45419,0 -10.89134,6.28799 a 98.075278,98.075278 0 0 1 4.05403,7.02076 l 10.8908,-6.28799 a 110.64158,110.64158 0 0 0 -4.05349,-7.02076 z m -199.77127,27.23193 a 110.64158,110.64158 0 0 0 -1.57406,5.87355 l 5.87561,1.57458 a 104.56111,104.56111 0 0 1 1.57406,-5.87355 z m 212.08834,0 -5.8756,1.57458 a 104.56111,104.56111 0 0 1 1.57405,5.87355 l 5.87563,-1.57458 a 110.64158,110.64158 0 0 0 -1.57408,-5.87355 z m -216.61158,27.5084 a 110.64158,110.64158 0 0 0 -0.0744,4.05401 110.64158,110.64158 0 0 0 0.0744,4.0535 h 12.57598 a 98.075278,98.075278 0 0 1 -0.0837,-4.0535 98.075278,98.075278 0 0 1 0.0837,-4.05401 z m 208.55885,0 a 98.075278,98.075278 0 0 1 0.0837,4.05401 98.075278,98.075278 0 0 1 -0.0837,4.0535 h 12.57596 a 110.64158,110.64158 0 0 0 0.0744,-4.0535 110.64158,110.64158 0 0 0 -0.0744,-4.05401 z m -199.73406,28.16779 -5.87561,1.57458 a 110.64158,110.64158 0 0 0 1.57406,5.87354 l 5.87561,-1.57458 a 104.56111,104.56111 0 0 1 -1.57406,-5.87354 z m 203.48524,5.2e-4 a 104.56111,104.56111 0 0 1 -1.57405,5.87302 l 5.8756,1.57458 a 110.64158,110.64158 0 0 0 1.57355,-5.87354 z m -14.85283,21.37026 a 98.075278,98.075278 0 0 1 -4.05403,7.02127 l 10.89134,6.28801 a 110.64158,110.64158 0 0 0 4.05349,-7.02127 z m -173.77957,5.3e-4 -10.89081,6.28798 a 110.64158,110.64158 0 0 0 4.0535,7.02077 l 10.89132,-6.28801 a 98.075278,98.075278 0 0 1 -4.05401,-7.02074 z m 10.83603,26.26918 -4.30155,4.30157 a 110.64158,110.64158 0 0 0 4.29948,4.299479 l 4.30103,-4.30104 a 104.56111,104.56111 0 0 1 -4.29896,-4.300009 z m 152.10803,5.3e-4 a 104.56111,104.56111 0 0 1 -4.30001,4.29895 l 4.30155,4.301569 a 110.64158,110.64158 0 0 0 4.29948,-4.299479 z m -128.56063,11.080988 -6.28799,10.890805 a 110.64158,110.64158 0 0 0 7.02128,4.053999 l 6.28799,-10.890806 a 98.075278,98.075278 0 0 1 -7.02128,-4.053998 z m 105.01272,0 a 98.075278,98.075278 0 0 1 -7.02128,4.053496 l 6.28798,10.890805 a 110.64158,110.64158 0 0 0 7.02128,-4.052993 z m -56.55987,15.155121 v 12.57599 a 110.64158,110.64158 0 0 0 4.0535,0.0744 110.64158,110.64158 0 0 0 4.0535,-0.0744 v -12.57599 a 98.075278,98.075278 0 0 1 -4.0535,0.08424 98.075278,98.075278 0 0 1 -4.0535,-0.08424 z m -25.93381,2.17715 -1.57458,5.875603 a 110.64158,110.64158 0 0 0 5.87302,1.574588 l 1.57458,-5.876131 a 104.56111,104.56111 0 0 1 -5.87302,-1.57406 z m 59.97462,0 a 104.56111,104.56111 0 0 1 -5.87301,1.57406 l 1.57459,5.875602 a 110.64158,110.64158 0 0 0 5.87301,-1.573557 z" />
    <path
       id="path964"
       style="fill:#000000;fill-rule:evenodd;stroke-width:0.0634828"
       d="m 1150.5176,565.76953 -18.8321,32.61914 h 18.2325 a 272.62461,272.62461 0 0 0 -5.5293,0.0684 v 244.1875 a 29.022691,29.022691 0 0 0 -22.8946,28.36914 29.022691,29.022691 0 0 0 29.0235,29.02149 29.022691,29.022691 0 0 0 27.3554,-19.33008 l 300.0645,80.40234 a 340.03646,340.03646 0 0 0 1.6582,-5.97656 340.03646,340.03646 0 0 0 1.5156,-5.86328 l -301.6875,-80.83594 a 29.022691,29.022691 0 0 0 -22.7773,-25.78711 V 598.45898 a 272.62461,272.62461 0 0 0 -5.5527,-0.0703 h 18.2558 z m 329.0781,389.36133 -4.8926,18.26172 36.3809,-9.74805 -26.6328,-26.63281 z"
       transform="matrix(0.26458333,0,0,0.26458333,-627.64633,-404.85906)" />
  </g>
</svg>
